<?xml version="1.0" standalone="no"?>
<!DOCTYPE svg PUBLIC "-//W3C//DTD SVG 20010904//EN"
 "http://www.w3.org/TR/2001/REC-SVG-20010904/DTD/svg10.dtd">
<svg version="1.0" xmlns="http://www.w3.org/2000/svg"
 width="1135.000000pt" height="1280.000000pt" viewBox="0 0 1135.000000 1280.000000"
 preserveAspectRatio="xMidYMid meet">
<metadata>
Created by potrace 1.15, written by Peter Selinger 2001-2017
</metadata>
<g transform="translate(0.000000,1280.000000) scale(0.100000,-0.100000)"
fill="#000000" stroke="none">
<path d="M5402 12780 c-124 -33 -225 -93 -328 -195 -74 -74 -98 -106 -132
-175 -80 -162 -73 -285 21 -403 20 -25 22 -42 25 -156 3 -108 0 -144 -22 -239
-46 -204 -93 -275 -203 -307 -255 -75 -1171 -210 -1504 -222 -151 -5 -172 -4
-235 15 -38 12 -100 40 -139 63 -119 70 -174 92 -242 93 -75 1 -106 -18 -146
-92 -52 -96 -61 -167 -62 -477 0 -238 3 -292 19 -361 23 -100 60 -171 106
-202 52 -36 140 -27 239 22 99 50 179 66 342 66 147 0 545 -34 864 -75 609
-77 771 -141 837 -333 l23 -67 -1 -965 c0 -1095 -21 -2096 -69 -3260 -63
-1547 -176 -2286 -386 -2524 -100 -114 -535 -271 -919 -332 -324 -51 -681 35
-1068 257 -372 215 -817 580 -1270 1042 l-103 105 58 17 c161 47 672 145 755
145 16 0 28 3 28 8 0 4 -91 44 -203 89 -111 45 -319 130 -462 189 -1170 479
-1215 497 -1221 492 -4 -5 38 -780 71 -1293 45 -698 86 -1129 108 -1152 24
-23 59 67 143 361 88 310 165 556 173 556 4 0 35 -53 71 -117 170 -313 415
-698 596 -939 494 -658 992 -1033 1608 -1213 177 -52 297 -75 586 -112 584
-74 1116 -183 1435 -292 206 -71 247 -114 535 -569 71 -112 177 -228 207 -228
49 0 142 111 272 325 136 223 241 356 320 406 90 58 447 160 811 233 249 50
440 81 715 116 449 57 639 101 910 210 786 315 1452 1069 2136 2419 95 186
110 210 117 190 5 -13 19 -51 31 -83 39 -105 88 -265 171 -554 83 -293 112
-372 136 -372 7 0 16 12 20 28 3 15 8 34 10 42 20 85 73 791 124 1670 16 283
32 559 36 613 l6 97 -58 -25 c-33 -13 -322 -132 -644 -263 -322 -132 -721
-295 -888 -363 -209 -85 -298 -126 -285 -130 10 -4 107 -21 216 -38 256 -41
603 -118 630 -141 11 -9 -520 -556 -714 -736 -548 -507 -981 -798 -1386 -929
-180 -59 -250 -70 -438 -70 -148 0 -188 4 -310 29 -392 80 -757 228 -827 334
-179 270 -283 877 -343 2002 -62 1166 -115 3637 -96 4420 8 303 10 329 31 384
69 180 238 246 832 321 513 65 915 89 1054 64 32 -6 97 -29 144 -51 112 -53
197 -62 250 -26 45 31 86 112 107 213 24 116 24 575 0 690 -21 97 -59 178 -97
205 -70 50 -159 33 -329 -64 -53 -30 -125 -63 -161 -72 -120 -31 -418 -7
-1045 82 -368 53 -681 118 -751 158 -82 46 -156 277 -158 491 -1 129 -1 130
68 240 60 97 43 260 -42 390 -108 166 -263 280 -440 326 -94 24 -176 23 -270
-1z m177 -361 c112 -18 161 -65 163 -157 2 -90 -65 -161 -172 -184 -99 -20
-183 7 -234 75 -30 41 -30 153 0 194 27 36 71 62 126 72 23 5 45 9 48 10 3 0
34 -4 69 -10z"/>
</g>
</svg>
