<?xml version="1.0" standalone="no"?>
<!DOCTYPE svg PUBLIC "-//W3C//DTD SVG 20010904//EN"
 "http://www.w3.org/TR/2001/REC-SVG-20010904/DTD/svg10.dtd">
<svg version="1.0" xmlns="http://www.w3.org/2000/svg"
 width="1920.000000pt" height="1920.000000pt" viewBox="0 0 1920.000000 1920.000000"
 preserveAspectRatio="xMidYMid meet">

<g transform="translate(0.000000,1920.000000) scale(0.100000,-0.100000)"
fill="#000000" stroke="none">
<path d="M11914 17092 c-151 -73 -244 -233 -244 -420 0 -149 44 -298 160 -542
127 -268 159 -390 166 -630 l5 -165 -36 63 c-107 184 -278 281 -425 242 -57
-15 -144 -100 -159 -157 -39 -140 48 -281 190 -308 99 -18 186 84 159 186 -17
62 -49 89 -106 89 -53 0 -97 -22 -115 -59 l-13 -26 -4 28 c-9 73 71 145 147
132 103 -17 177 -122 175 -250 -1 -82 -19 -129 -71 -186 -50 -55 -105 -81
-184 -87 -52 -3 -73 0 -105 16 -151 77 -244 335 -264 729 -17 338 -78 560
-214 767 -97 149 -232 267 -377 328 -108 45 -191 61 -324 61 -140 0 -216 -17
-318 -70 -223 -117 -263 -371 -86 -558 69 -73 139 -107 233 -113 191 -12 316
97 316 278 0 106 -32 158 -112 180 -112 31 -205 -72 -168 -184 12 -37 59 -80
95 -88 17 -4 16 -7 -10 -17 -58 -24 -143 6 -212 75 -47 48 -63 92 -63 179 0
114 70 184 203 205 116 18 186 -7 272 -95 58 -59 126 -187 145 -274 19 -84 9
-233 -22 -309 -79 -194 -221 -339 -434 -443 -131 -64 -264 -94 -354 -80 -137
22 -221 105 -206 205 10 63 38 96 83 96 l35 0 -26 -31 c-39 -46 -36 -101 8
-145 38 -38 67 -42 121 -20 60 25 82 106 50 183 -32 77 -97 116 -190 116 -133
0 -224 -97 -225 -238 0 -109 82 -233 199 -298 l43 -25 -73 -50 c-365 -248
-583 -636 -664 -1184 l-18 -118 -26 79 c-77 229 -246 341 -561 373 -332 33
-701 -113 -976 -387 -193 -193 -294 -379 -323 -598 -15 -106 -45 -190 -98
-269 -76 -116 -149 -167 -321 -227 -200 -69 -326 -159 -379 -270 -30 -63 -33
-124 -18 -307 11 -137 -3 -178 -95 -279 -116 -127 -125 -194 -51 -363 68 -154
55 -207 -89 -357 -118 -123 -151 -181 -158 -280 -5 -89 18 -154 91 -248 108
-142 126 -169 137 -217 17 -72 -7 -168 -76 -300 -154 -297 -158 -305 -162
-399 -3 -69 0 -98 18 -151 31 -93 98 -204 215 -351 176 -224 238 -367 266
-617 15 -130 2 -252 -45 -419 -48 -171 -59 -259 -53 -426 7 -200 51 -352 154
-532 97 -170 201 -299 489 -608 109 -116 233 -255 277 -307 162 -195 271 -383
324 -558 34 -115 36 -258 4 -346 -101 -281 -451 -442 -658 -303 -58 39 -116
113 -145 187 -32 78 -32 231 0 310 50 126 176 233 290 247 140 16 252 -53 252
-156 0 -36 1 -36 -36 -16 -67 35 -155 7 -185 -59 -40 -88 -14 -167 67 -206 96
-47 203 -8 248 89 30 65 28 184 -4 266 -47 121 -184 221 -333 245 -192 30
-403 -82 -485 -258 -24 -53 -27 -67 -26 -187 0 -115 3 -139 26 -203 57 -159
173 -306 293 -369 122 -64 273 -85 423 -59 175 30 300 93 420 209 34 34 62 56
62 49 0 -15 -41 -202 -135 -608 -154 -667 -235 -1135 -235 -1353 0 -223 69
-402 209 -542 86 -85 150 -125 266 -165 73 -26 93 -28 225 -29 129 0 150 2
193 22 163 75 276 245 277 418 l1 50 36 -45 c69 -85 258 -265 355 -338 384
-288 873 -504 1333 -588 121 -22 412 -29 588 -15 1207 100 2066 737 2262 1678
88 418 37 891 -139 1298 -305 706 -964 1167 -1780 1246 -291 28 -655 -45 -951
-191 -524 -257 -799 -684 -771 -1194 21 -367 149 -671 382 -902 177 -175 418
-302 674 -354 415 -85 823 23 1062 279 128 137 179 260 186 448 6 155 -12 243
-78 378 -56 116 -134 214 -211 268 -114 78 -307 119 -468 98 -204 -26 -325
-100 -389 -240 -22 -48 -26 -69 -25 -146 1 -150 56 -259 163 -319 47 -27 65
-31 125 -31 117 1 190 54 221 162 20 70 9 116 -42 173 -58 64 -131 86 -200 60
-26 -10 -26 -10 -20 22 8 44 35 79 77 101 28 15 52 18 134 15 87 -3 109 -8
165 -34 238 -112 327 -435 196 -707 -64 -134 -169 -224 -319 -274 -74 -24 -96
-27 -232 -27 -123 0 -164 4 -228 22 -179 49 -340 157 -429 287 -56 83 -120
232 -156 364 -23 85 -26 115 -26 266 0 156 3 177 27 258 83 271 261 483 515
614 227 118 429 145 669 90 540 -124 913 -528 1041 -1127 85 -395 41 -802
-122 -1135 -82 -166 -166 -285 -291 -410 -211 -211 -480 -348 -795 -406 -48
-9 -147 -14 -275 -14 -168 0 -218 4 -315 23 -496 100 -906 372 -1170 777 -161
247 -285 607 -332 965 -19 144 -16 491 6 630 48 314 140 573 279 780 234 350
670 706 997 815 130 43 221 50 329 23 8 -2 17 9 22 27 14 49 65 101 131 134
75 38 167 42 235 12 l42 -19 6 41 c10 65 43 126 78 143 40 21 128 14 185 -15
l41 -21 16 58 c32 109 85 162 163 162 31 0 51 -8 86 -35 26 -19 48 -35 51 -35
3 0 5 15 5 34 0 45 26 115 52 143 47 50 136 32 233 -47 l40 -32 6 84 c15 200
81 244 269 178 47 -16 86 -30 86 -30 1 0 3 46 6 103 3 89 7 108 31 149 37 64
94 90 204 96 l83 5 0 73 c0 174 85 268 265 293 37 5 69 12 72 15 3 2 0 28 -6
56 -31 144 -3 263 79 333 40 34 132 77 165 77 20 0 19 2 -15 58 -43 71 -66
166 -51 218 25 90 102 162 234 216 42 18 77 34 76 37 0 4 -27 25 -60 49 -33
23 -73 63 -89 89 -58 91 -35 159 94 282 37 35 66 64 64 65 -2 2 -25 15 -53 31
-68 39 -150 118 -175 169 -37 77 -22 179 40 266 26 37 26 40 -12 40 -75 1
-154 61 -178 136 -18 53 -6 138 28 206 33 66 41 56 -63 77 -185 36 -253 144
-195 308 11 32 20 58 20 59 0 1 -46 4 -102 6 -205 8 -249 71 -199 283 11 44
19 81 18 82 -1 0 -32 -6 -70 -14 -115 -26 -192 -1 -223 73 -8 20 -14 70 -14
124 0 49 -3 90 -7 90 -5 0 -39 -16 -77 -35 -128 -65 -166 -38 -166 119 l0 84
-50 -19 c-28 -10 -66 -19 -86 -19 -68 0 -104 76 -91 191 3 27 5 49 3 49 -2 0
-23 -9 -47 -20 -130 -59 -206 9 -197 177 l3 63 -75 -6 c-64 -5 -80 -2 -107 15
-42 27 -62 67 -70 143 -7 69 -13 78 -58 78 -49 1 -112 35 -130 71 -13 24 -16
51 -13 109 3 73 2 77 -15 68 -10 -5 -30 -8 -45 -6 -26 3 -27 6 -30 63 -8 151
80 225 268 225 163 0 348 -49 548 -145 131 -63 251 -140 442 -284 210 -159
325 -206 436 -182 29 7 65 22 80 33 31 25 69 102 85 175 11 48 15 52 55 68 83
32 124 104 124 221 0 86 -21 149 -108 316 l-76 147 -35 -41 c-43 -51 -84 -68
-159 -68 -85 0 -182 50 -256 132 -131 145 -205 451 -193 798 9 246 38 405 132
725 150 512 169 771 75 1012 -28 73 -87 179 -95 172 -1 -2 5 -47 15 -99 42
-218 44 -427 5 -597 -25 -109 -96 -243 -166 -315 l-61 -63 7 35 c21 117 25
156 25 257 0 184 -32 309 -127 498 -73 145 -136 300 -164 405 -18 67 -23 112
-24 210 0 117 2 129 28 182 62 126 209 197 321 154 121 -46 193 -200 136 -293
-40 -66 -156 -95 -210 -53 -25 19 -25 20 -3 20 38 0 72 22 88 57 48 101 -66
195 -166 136 -81 -48 -78 -202 7 -301 48 -56 110 -84 187 -84 171 0 279 125
264 306 -12 138 -105 263 -244 329 -57 27 -82 32 -153 35 -77 3 -91 0 -146
-26z m-1088 -1495 c60 -31 117 -91 134 -142 7 -20 10 -63 8 -95 -8 -109 -82
-179 -190 -180 -27 0 -48 -4 -48 -9 0 -17 78 -79 151 -121 180 -103 213 -124
202 -127 -6 -2 -53 10 -105 27 -279 93 -447 283 -384 434 15 36 57 73 93 82
28 7 94 -19 119 -47 17 -18 16 -19 -15 -8 -60 21 -131 -18 -131 -73 0 -67 56
-120 130 -122 72 -1 130 70 130 159 0 62 -19 103 -68 147 -104 94 -275 71
-347 -46 -28 -45 -30 -57 -30 -140 0 -80 4 -98 29 -150 52 -105 135 -173 369
-300 l67 -37 -62 -46 c-35 -25 -77 -59 -95 -76 l-32 -30 -128 6 c-196 10 -300
49 -348 131 -29 50 -34 129 -9 164 24 35 34 26 27 -26 -15 -126 114 -187 204
-97 32 32 38 54 33 115 -4 49 -52 111 -107 139 -50 26 -155 5 -219 -44 -69
-52 -83 -179 -30 -269 77 -131 248 -205 444 -192 45 3 82 3 82 0 0 -2 -11 -26
-24 -52 -13 -26 -33 -78 -46 -115 l-22 -68 -77 -39 c-129 -64 -237 -84 -304
-56 -47 19 -87 70 -87 110 0 48 11 51 31 7 20 -46 48 -64 101 -64 74 0 115 52
103 131 -12 83 -85 130 -183 116 -91 -13 -144 -77 -144 -173 0 -65 10 -91 55
-139 72 -75 202 -81 425 -17 34 10 64 16 66 14 2 -2 7 -56 11 -120 l7 -116
-55 -60 c-97 -104 -211 -147 -287 -108 -62 32 -76 86 -35 132 l24 28 1 -27 c0
-40 10 -57 42 -74 38 -20 76 -3 102 47 22 41 17 75 -17 114 -34 39 -85 43
-149 12 -132 -65 -136 -232 -7 -297 64 -33 156 -28 243 14 39 19 97 58 128 86
l57 51 31 -62 c18 -34 52 -83 76 -109 l45 -48 -38 -78 c-61 -124 -145 -204
-215 -204 -38 0 -108 40 -124 72 -14 26 -14 35 -3 57 l13 26 4 -35 c2 -19 9
-41 15 -49 37 -45 120 -31 143 25 31 75 1 148 -73 173 -36 13 -45 13 -86 -3
-64 -24 -92 -71 -91 -151 1 -122 68 -185 195 -185 132 0 192 38 288 180 67
100 76 91 22 -25 -57 -121 -160 -189 -285 -187 -120 1 -206 45 -245 125 -25
51 -27 132 -6 192 19 53 19 55 -7 55 -39 0 -122 45 -157 85 -50 57 -64 99 -58
170 5 67 22 107 68 160 l31 35 -27 10 c-14 5 -30 10 -34 10 -4 0 -26 14 -48
30 -111 81 -122 278 -22 364 23 19 66 45 95 57 l53 22 -29 37 c-67 85 -109
203 -96 272 9 49 59 121 104 150 55 36 97 48 173 48 38 0 69 1 69 3 0 2 -7 25
-16 51 -21 62 -15 196 10 246 34 66 95 118 166 141 51 17 172 4 226 -24z
m-998 -341 c3 -43 -1 -65 -18 -100 -26 -55 -120 -142 -197 -184 l-56 -30 40
-20 c140 -72 194 -203 134 -325 -28 -58 -100 -131 -170 -172 -28 -16 -51 -32
-51 -35 0 -3 21 -16 46 -29 64 -34 152 -124 180 -185 48 -102 26 -202 -69
-318 l-47 -57 42 -12 c66 -17 155 -66 205 -112 113 -103 122 -244 28 -401 -19
-32 -34 -60 -33 -61 2 -1 29 -7 60 -14 130 -28 228 -102 286 -218 42 -82 58
-143 82 -306 30 -199 54 -287 110 -403 56 -116 132 -216 246 -324 79 -75 266
-230 277 -230 4 0 -25 39 -64 88 -146 182 -243 347 -304 516 -20 54 -34 101
-31 103 2 2 27 -40 56 -93 71 -134 182 -306 289 -449 98 -130 151 -220 151
-255 0 -15 40 -62 128 -149 142 -139 199 -212 297 -375 85 -143 116 -238 123
-377 6 -135 -14 -230 -73 -354 -52 -110 -93 -167 -186 -262 l-72 -73 41 0 c22
0 65 -5 93 -11 l53 -11 30 38 c54 70 146 155 189 174 23 11 58 19 77 19 l35 0
-55 -27 c-37 -18 -89 -61 -160 -132 l-105 -105 -75 9 c-149 19 -300 -26 -398
-119 l-49 -45 -53 11 c-66 14 -185 5 -281 -22 l-70 -19 -68 39 c-158 93 -278
206 -330 313 -42 87 -65 225 -58 349 14 236 132 420 330 517 35 17 80 34 100
37 52 10 53 20 5 44 -66 31 -136 43 -211 36 -130 -12 -240 -66 -322 -157 -25
-28 -45 -47 -45 -43 0 4 14 34 31 66 109 204 360 258 603 131 131 -68 240
-203 281 -345 19 -66 22 -230 6 -285 -11 -38 -61 -126 -67 -119 -2 2 3 20 11
40 30 73 13 180 -38 235 -68 74 -214 102 -319 62 -69 -26 -136 -87 -175 -161
-25 -48 -28 -64 -28 -149 0 -83 3 -102 27 -150 55 -110 207 -247 325 -293 118
-46 266 -41 415 13 132 48 205 95 309 199 80 80 103 111 141 188 62 123 82
217 75 347 -15 293 -160 505 -682 1003 -471 449 -494 483 -551 793 -75 414
-174 573 -409 655 -36 12 -65 25 -65 29 0 3 15 36 32 73 24 51 33 84 36 145 4
72 2 83 -26 141 -17 34 -44 74 -59 89 -40 38 -137 95 -197 114 -28 9 -53 18
-55 20 -2 2 13 25 33 52 20 27 50 80 68 118 40 86 44 175 11 239 -27 52 -102
122 -176 164 l-58 33 38 26 c182 121 238 246 171 382 -15 30 -52 82 -82 115
l-54 61 70 33 c127 62 214 163 239 280 14 66 30 55 37 -23z m-413 -566 c0 -94
-27 -151 -122 -263 -36 -43 -64 -79 -62 -81 2 -1 32 -19 65 -39 131 -78 188
-161 189 -272 0 -88 -20 -142 -91 -241 -30 -42 -54 -78 -52 -79 2 -2 28 -13
58 -25 167 -65 275 -175 287 -292 6 -68 -22 -148 -79 -220 -23 -28 -37 -53
-31 -55 48 -16 178 -88 220 -121 63 -50 135 -150 169 -232 14 -34 40 -119 59
-188 67 -252 159 -464 308 -712 41 -69 74 -126 72 -128 -1 -2 -31 5 -66 14
-45 13 -101 18 -189 18 -146 0 -239 -21 -357 -83 -40 -21 -73 -35 -73 -32 0 9
58 63 96 89 90 62 293 96 428 73 38 -7 70 -10 72 -8 2 2 -20 40 -50 84 -150
224 -241 428 -312 696 -24 94 -58 198 -75 233 -56 114 -172 203 -306 235 -27
7 -51 15 -55 18 -4 4 10 43 32 86 117 236 49 388 -216 479 l-61 21 49 85 c114
198 115 341 5 466 -28 33 -129 106 -159 116 -6 2 28 53 76 113 109 137 129
186 129 315 l1 95 20 -45 c15 -32 20 -66 21 -120z m1855 -65 c-14 -17 -40 -20
-40 -6 0 8 18 16 44 20 5 0 3 -6 -4 -14z m-46 -28 c16 -12 16 -14 -2 -30 -19
-17 -21 -17 -56 -1 -40 19 -45 30 -18 37 33 9 58 7 76 -6z m512 -17 c114 -40
205 -135 253 -263 11 -32 32 -122 46 -200 43 -249 109 -432 209 -571 83 -117
163 -177 300 -225 99 -35 153 -69 213 -134 48 -52 60 -85 43 -117 -14 -26 -67
-50 -113 -50 -33 0 -110 34 -169 74 -41 27 -35 5 18 -76 53 -79 57 -97 28
-112 -11 -6 -28 -19 -38 -29 -23 -23 -59 -22 -81 3 -10 11 -30 20 -45 20 -30
0 -50 16 -50 42 0 11 -5 15 -15 12 -19 -8 -65 22 -65 41 0 9 -10 15 -24 15
-27 0 -56 24 -56 46 0 8 -10 14 -26 14 -36 0 -61 16 -67 42 -5 19 -13 23 -43
24 -27 0 -43 8 -61 28 -12 15 -23 34 -23 42 0 10 -12 14 -39 14 -48 0 -96 36
-104 79 -5 25 -10 29 -41 29 -67 0 -126 59 -126 126 0 23 -3 26 -24 20 -57
-14 -145 39 -172 103 -29 68 -14 137 40 188 l34 32 -63 42 c-163 106 -254 293
-224 456 36 197 160 303 357 304 48 1 91 -6 128 -19z m-556 -70 c-6 -11 -15
-20 -20 -20 -14 0 -120 48 -120 54 0 3 12 12 27 20 25 13 32 12 76 -10 42 -22
46 -27 37 -44z m-91 -16 c34 -15 61 -30 61 -33 0 -4 -6 -15 -13 -25 -14 -19
-6 -20 -157 36 l-25 10 24 19 c30 25 38 24 110 -7z m-55 -65 c48 -17 86 -32
86 -34 0 -2 -4 -15 -9 -28 l-9 -24 -94 24 c-51 13 -99 26 -106 29 -10 3 -8 11
8 34 12 16 25 30 30 30 5 0 47 -14 94 -31z m-98 -63 c27 -8 75 -22 107 -31 52
-14 57 -18 51 -38 -3 -12 -7 -23 -9 -24 -3 -5 -220 40 -228 47 -8 7 12 60 23
60 3 0 29 -6 56 -14z m-2485 -72 c105 -31 185 -97 236 -197 31 -61 43 -184 24
-254 -16 -58 -71 -134 -117 -160 -63 -36 -184 -28 -184 12 0 7 13 16 30 20 16
4 43 19 60 35 26 24 30 35 30 82 0 152 -173 220 -274 107 -40 -44 -51 -86 -43
-172 7 -82 43 -132 122 -172 55 -27 68 -30 160 -30 82 1 109 5 151 23 90 41
171 145 215 277 13 40 13 40 21 -65 26 -364 102 -721 223 -1051 144 -391 256
-749 344 -1104 57 -228 105 -464 97 -472 -3 -3 -31 9 -63 27 -169 94 -279 204
-349 345 -70 143 -87 220 -87 415 -1 172 12 272 57 453 12 48 19 90 14 93 -14
9 -127 -16 -216 -47 -156 -55 -328 -158 -441 -263 l-53 -51 -25 30 c-48 59
-151 212 -208 308 -136 234 -239 506 -289 769 -43 226 -46 497 -6 623 64 204
200 368 348 421 51 18 158 17 223 -2z m2639 -70 c0 -29 -12 -30 -155 -9 -55 8
-103 15 -107 15 -11 0 -10 28 2 49 9 17 15 17 135 -7 118 -23 125 -26 125 -48z
m-3320 -10 c-44 -63 -88 -163 -112 -253 -16 -59 -21 -119 -25 -271 l-6 -195
-38 -87 c-47 -108 -68 -186 -76 -286 -6 -89 9 -242 37 -358 10 -43 17 -81 15
-82 -5 -6 -59 103 -99 200 -227 548 -178 1006 134 1261 61 50 168 116 188 117
8 0 0 -18 -18 -46z m3190 -24 c127 -16 130 -17 130 -46 0 -26 -1 -26 -57 -20
-32 3 -95 8 -140 12 l-83 6 0 35 c0 34 1 35 33 30 17 -4 70 -11 117 -17z m42
-86 c87 -6 97 -8 102 -28 3 -11 6 -24 6 -28 0 -5 -65 -8 -144 -8 -141 0 -144
0 -150 23 -14 53 -10 59 42 53 26 -3 90 -8 144 -12z m123 -105 c4 -11 5 -22 3
-24 -2 -2 -62 -8 -133 -13 -138 -9 -147 -7 -160 36 l-6 22 145 0 c138 0 145
-1 151 -21z m28 -70 c7 -24 5 -25 -108 -39 -49 -6 -102 -13 -116 -16 -20 -4
-30 1 -43 21 -10 15 -15 30 -11 33 6 6 126 17 226 20 39 2 48 -1 52 -19z m31
-65 c4 -9 5 -19 3 -21 -3 -2 -55 -14 -117 -26 l-112 -22 -19 24 c-11 13 -17
26 -14 29 7 7 163 29 216 31 26 1 39 -4 43 -15z m31 -65 c4 -11 5 -22 3 -24
-1 -2 -46 -15 -98 -29 l-94 -26 -23 22 c-13 12 -23 25 -23 28 0 7 173 46 212
49 9 1 20 -8 23 -20z m35 -64 c16 -19 21 -15 -78 -49 l-84 -29 -21 21 c-11 12
-19 23 -16 25 7 6 153 45 170 46 9 1 22 -6 29 -14z m35 -74 c-6 -5 -37 -20
-71 -34 -59 -24 -61 -24 -84 -5 -12 10 -21 20 -19 22 2 2 38 15 79 28 64 22
77 24 90 12 9 -9 11 -17 5 -23z m30 -45 c0 -23 -91 -64 -112 -50 -25 15 -16
26 39 50 59 26 73 26 73 0z m43 -56 c1 -9 -12 -24 -29 -34 -26 -16 -35 -16
-55 -5 -33 17 -30 24 14 42 44 18 66 17 70 -3z m22 -74 c-12 -6 -29 -5 -42 1
-23 10 -22 10 7 26 28 15 31 15 43 -1 11 -14 10 -18 -8 -26z m-3651 -429 c1
-5 -3 -5 -9 -2 -5 3 -10 16 -9 28 0 21 1 21 9 2 5 -11 9 -24 9 -28z m-9 -31
c0 -3 -4 -8 -10 -11 -5 -3 -10 -1 -10 4 0 6 5 11 10 11 6 0 10 -2 10 -4z m23
-48 c8 -28 2 -34 -17 -19 -8 7 -12 19 -9 27 8 21 20 17 26 -8z m3019 -55 c-27
-32 -77 -89 -111 -127 -34 -38 -60 -71 -58 -73 2 -2 59 17 126 43 67 25 124
44 126 42 2 -2 -51 -48 -117 -102 -136 -110 -144 -112 -192 -39 -26 40 -50
123 -38 135 12 11 296 176 305 177 5 1 -13 -25 -41 -56z m-3043 13 c9 -10 8
-16 -4 -26 -13 -11 -15 -8 -15 14 0 30 3 32 19 12z m1901 -18 c101 -51 120
-163 48 -270 -18 -26 -18 -27 4 -34 38 -11 159 -67 155 -70 -2 -2 -54 12 -115
31 -201 64 -247 91 -258 151 -8 45 3 72 36 89 39 20 44 19 26 -7 -22 -30 -20
-81 3 -109 15 -18 28 -23 61 -23 81 3 116 77 70 152 -25 40 -73 62 -137 62
-85 0 -129 -40 -139 -126 -13 -103 56 -197 189 -259 l69 -32 -32 -12 c-56 -19
-101 -61 -127 -119 -22 -46 -25 -65 -20 -118 9 -119 74 -177 197 -178 76 0
122 20 145 64 17 33 20 93 5 121 -13 23 -61 49 -92 49 -39 0 -86 -36 -96 -72
l-9 -33 -21 35 c-26 41 -28 70 -7 110 15 30 66 61 118 74 100 24 207 -92 207
-223 -1 -60 -27 -114 -86 -176 -177 -186 -224 -233 -224 -222 0 23 48 90 105
148 l59 59 -45 0 c-123 0 -250 64 -289 147 -46 97 -25 199 62 298 22 25 39 47
37 49 -2 1 -20 12 -40 24 -54 32 -113 102 -134 155 -51 135 46 287 185 287 28
0 63 -9 90 -22z m-1854 -23 c4 -8 3 -23 0 -32 -6 -15 -8 -15 -23 -1 -16 17
-12 48 7 48 6 0 13 -7 16 -15z m-900 -26 c261 -68 518 -274 964 -769 94 -105
94 -105 -125 64 -271 210 -499 347 -634 382 -146 37 -217 -51 -139 -172 17
-27 95 -112 172 -189 108 -107 199 -184 383 -323 134 -101 246 -188 249 -194
4 -7 -54 21 -128 60 -556 292 -987 613 -1115 829 -30 51 -40 135 -23 189 45
140 177 181 396 123z m861 -56 c-16 -16 -17 -15 -17 17 0 32 1 33 17 17 16
-16 16 -18 0 -34z m63 -29 c0 -17 -15 -25 -34 -18 -19 7 -21 25 -4 42 13 13
38 -2 38 -24z m40 -56 c0 -12 -14 -10 -27 3 -6 6 -9 18 -6 27 5 13 8 12 20 -4
7 -10 13 -21 13 -26z m-83 16 c3 -8 1 -20 -6 -27 -8 -8 -11 -8 -11 0 0 6 -3
18 -6 27 -3 9 -1 16 5 16 7 0 14 -7 18 -16z m3124 -125 c-33 -68 -59 -125 -57
-126 1 -1 64 9 140 23 76 14 140 23 143 21 3 -4 -273 -197 -282 -197 -3 0 -12
18 -21 40 -9 23 -41 63 -75 94 l-59 55 133 109 c72 61 133 109 135 108 1 -2
-25 -59 -57 -127z m-3072 88 c8 -10 7 -18 -2 -31 -11 -15 -15 -15 -32 -2 -16
12 -17 16 -6 30 16 19 25 20 40 3z m51 -42 c19 -23 -5 -48 -30 -33 -14 9 -16
15 -7 30 14 22 21 22 37 3z m-80 -19 c0 -3 -4 -8 -10 -11 -5 -3 -10 -1 -10 4
0 6 5 11 10 11 6 0 10 -2 10 -4z m40 -36 c13 -8 13 -11 -2 -26 -14 -14 -20
-15 -33 -4 -12 10 -13 16 -4 26 13 16 19 17 39 4z m74 -6 c9 -24 7 -28 -9 -14
-17 14 -20 30 -6 30 5 0 12 -7 15 -16z m-15 -38 c9 -10 8 -16 -4 -26 -17 -14
-45 -7 -45 13 0 29 30 37 49 13z m50 -39 c8 -10 7 -18 -2 -31 -11 -15 -15 -15
-32 -2 -16 12 -17 16 -6 30 16 19 25 20 40 3z m-99 -12 c10 -12 10 -19 2 -27
-14 -14 -17 -11 -26 20 -8 25 5 29 24 7z m3351 -37 c-5 -13 -37 -86 -70 -163
-34 -76 -60 -142 -59 -145 2 -4 75 10 163 31 88 21 161 36 163 35 1 -2 -64
-57 -145 -124 -125 -102 -150 -119 -158 -105 -29 45 -62 75 -121 108 -56 32
-104 80 -104 107 0 6 328 278 336 278 2 0 -1 -10 -5 -22z m-3292 -30 c-12 -22
-23 -23 -39 -3 -10 12 -10 18 0 30 18 21 52 -2 39 -27z m81 6 c0 -11 -4 -12
-19 -2 -10 6 -17 18 -14 25 7 17 33 -2 33 -23z m-20 -33 c0 -5 -7 -14 -15 -21
-12 -10 -18 -10 -30 0 -21 18 2 52 27 39 10 -5 18 -13 18 -18z m48 -44 c4 -20
-25 -34 -39 -20 -14 14 1 45 20 41 9 -2 17 -11 19 -21z m-100 0 c7 -8 8 -18 1
-27 -8 -13 -11 -12 -24 4 -22 29 0 51 23 23z m146 -67 c-5 -5 -18 -2 -28 5
-16 12 -17 17 -6 30 11 14 14 13 28 -6 8 -11 11 -24 6 -29z m-100 34 c19 -7
21 -25 5 -41 -9 -9 -16 -9 -29 -1 -14 9 -16 15 -7 30 7 10 13 18 14 18 1 0 8
-3 17 -6z m66 -74 c-13 -24 -23 -25 -40 -5 -19 22 5 48 31 34 15 -8 17 -14 9
-29z m-682 13 c-4 -21 -19 -26 -38 -13 -13 9 -13 11 0 20 23 15 42 12 38 -7z
m62 -34 c0 -14 -28 -29 -44 -23 -19 7 -19 9 -6 35 9 16 14 17 30 6 11 -6 20
-15 20 -18z m670 5 c11 -12 10 -18 -3 -31 -13 -13 -19 -14 -31 -4 -12 10 -13
16 -3 32 14 23 21 24 37 3z m-605 -14 c3 -6 -1 -7 -9 -4 -18 7 -21 14 -7 14 6
0 13 -4 16 -10z m514 -3 c11 -14 6 -27 -10 -27 -5 0 -13 9 -19 20 -8 16 -8 20
3 20 8 0 20 -6 26 -13z m-533 -22 c4 -8 1 -22 -6 -30 -11 -14 -15 -14 -31 1
-14 13 -16 20 -8 31 15 17 38 17 45 -2z m684 -21 c0 -17 -15 -25 -34 -18 -19
7 -21 25 -4 42 13 13 38 -2 38 -24z m-781 12 c9 -10 8 -16 -4 -26 -19 -16 -41
1 -32 24 8 20 21 20 36 2z m171 -1 c7 -8 8 -15 2 -15 -5 0 -15 7 -22 15 -7 8
-8 15 -2 15 5 0 15 -7 22 -15z m508 -8 c7 -8 7 -17 -2 -29 -12 -17 -14 -17
-29 0 -13 14 -14 21 -5 30 15 15 23 15 36 -1z m-529 -20 c8 -11 6 -18 -8 -31
-16 -15 -19 -15 -31 -1 -10 12 -10 18 0 30 15 19 24 19 39 2z m-99 -13 c11
-12 11 -18 -1 -30 -13 -12 -18 -12 -34 0 -16 12 -17 16 -6 30 17 20 25 20 41
0z m180 1 c10 -12 10 -15 -3 -15 -8 0 -20 7 -27 15 -10 12 -10 15 3 15 8 0 20
-7 27 -15z m494 -1 c20 -8 21 -28 2 -43 -17 -14 -39 9 -30 33 7 18 7 18 28 10z
m96 -25 c0 -11 -11 -11 -29 0 -7 5 -10 14 -6 20 5 9 10 9 21 0 8 -6 14 -15 14
-20z m3216 -118 c-36 -72 -66 -135 -66 -141 0 -6 55 17 121 51 67 33 133 65
147 70 23 9 23 8 -8 -28 -48 -56 -252 -263 -259 -263 -3 0 -17 21 -31 48 -14
26 -46 68 -71 94 l-47 47 135 132 c74 72 137 129 139 126 3 -3 -24 -64 -60
-136z m-3836 113 c11 -12 11 -18 -1 -30 -13 -12 -18 -12 -34 0 -16 12 -17 16
-6 30 17 20 25 20 41 0z m-96 -37 c-8 -21 -18 -21 -34 -2 -10 12 -10 18 0 31
11 13 15 13 27 1 8 -7 11 -21 7 -30z m184 25 c3 -9 -2 -13 -14 -10 -9 1 -19 9
-22 16 -3 9 2 13 14 10 9 -1 19 -9 22 -16z m502 -32 c-13 -24 -23 -25 -40 -5
-19 22 5 48 31 34 15 -8 17 -14 9 -29z m-530 -9 c-1 -29 -50 -36 -50 -7 0 22
22 37 37 25 7 -7 13 -14 13 -18z m-90 -12 c0 -4 -7 -12 -15 -19 -22 -19 -48 5
-34 31 8 16 13 17 29 6 11 -6 20 -15 20 -18z m169 18 c6 -8 8 -17 5 -20 -7 -7
-44 14 -44 25 0 13 27 9 39 -5z m500 -11 c6 -7 9 -21 5 -30 -7 -19 -9 -19 -35
-6 -16 9 -17 14 -6 30 14 24 21 25 36 6z m-89 -40 c-7 -7 -14 -4 -24 9 -19 27
-8 40 15 19 13 -12 16 -21 9 -28z m-430 5 c0 -5 -7 -14 -15 -21 -22 -19 -48 5
-34 31 8 15 14 17 29 9 11 -6 20 -14 20 -19z m69 10 c7 -5 10 -14 6 -20 -5 -9
-10 -9 -21 0 -26 22 -14 38 15 20z m-175 -10 c9 -14 -4 -41 -19 -41 -18 0 -28
17 -21 35 6 17 32 20 40 6z m686 -27 c0 -21 -21 -27 -38 -11 -13 13 -13 19 -2
32 10 12 16 13 26 4 8 -6 14 -17 14 -25z m-1464 -20 c103 -29 247 -87 395
-156 116 -55 446 -232 464 -250 6 -5 -28 7 -75 27 -111 47 -228 81 -332 95
-273 38 -430 -16 -360 -123 32 -48 140 -116 464 -292 70 -38 126 -70 124 -72
-2 -2 -50 12 -107 31 -321 105 -646 281 -796 431 -84 84 -112 138 -113 212 0
96 62 137 190 126 36 -3 102 -16 146 -29z m928 -7 c-3 -9 -13 -17 -20 -17 -21
0 -29 27 -13 46 10 13 14 13 26 1 8 -7 11 -21 7 -30z m434 35 c13 -9 7 -42 -8
-42 -13 0 -32 29 -25 40 7 12 16 13 33 2z m-353 -15 c13 -10 15 -16 6 -21 -12
-8 -41 10 -41 25 0 13 13 11 35 -4z m-176 -11 c14 -17 -9 -39 -33 -30 -18 7
-18 7 -10 28 8 20 28 21 43 2z m590 -19 c8 -11 6 -18 -8 -31 -15 -14 -20 -14
-30 -3 -13 17 -5 47 14 47 7 0 18 -6 24 -13z m81 -7 c8 -16 8 -20 -3 -20 -18
0 -39 24 -30 33 11 12 22 8 33 -13z m-522 -2 c8 -8 9 -15 1 -25 -22 -26 -55
-10 -43 21 7 19 25 21 42 4z m92 -19 c0 -18 -35 -5 -38 14 -3 16 -1 17 17 7
12 -6 21 -15 21 -21z m3831 9 c-5 -13 -41 -97 -80 -187 -39 -91 -69 -166 -68
-167 1 -2 64 40 140 93 76 52 139 94 141 92 2 -2 -62 -84 -143 -181 l-146
-178 -15 48 c-21 64 -51 104 -94 127 -20 11 -36 22 -36 26 0 6 302 349 307
349 1 0 -2 -10 -6 -22z m-4021 -3 c10 -12 10 -18 0 -31 -12 -13 -15 -13 -28 0
-15 15 -10 46 6 46 5 0 15 -7 22 -15z m590 -21 c11 -12 10 -18 -3 -32 -16 -15
-18 -15 -34 0 -13 14 -14 20 -3 32 7 9 16 16 20 16 4 0 13 -7 20 -16z m-446 0
c19 -7 21 -28 3 -42 -8 -7 -18 -6 -31 4 -16 11 -17 16 -6 29 14 17 13 17 34 9z
m-87 -46 c-14 -22 -21 -22 -37 -3 -19 23 5 48 30 33 14 -9 16 -15 7 -30z m173
32 c8 -5 12 -12 9 -15 -8 -8 -39 5 -39 16 0 11 11 11 30 -1z m400 -40 c0 -22
-4 -28 -15 -24 -16 7 -18 14 -9 38 10 26 24 18 24 -14z m-423 -20 c-14 -24
-21 -25 -37 -5 -19 22 5 48 31 34 16 -8 17 -13 6 -29z m-87 1 c0 -5 -7 -14
-15 -21 -22 -19 -48 5 -34 31 8 15 14 17 29 9 11 -6 20 -14 20 -19z m160 14
c20 -24 6 -28 -15 -5 -10 11 -13 20 -8 20 6 0 16 -7 23 -15z m-20 -31 c11 -12
10 -18 -3 -31 -22 -23 -52 0 -36 28 12 23 22 24 39 3z m-90 -30 c0 -17 -15
-25 -34 -18 -19 7 -21 25 -4 42 13 13 38 -2 38 -24z m170 4 c0 -6 -7 -5 -15 2
-8 7 -15 17 -15 22 0 6 7 5 15 -2 8 -7 15 -17 15 -22z m-20 -34 c0 -20 -17
-26 -41 -14 -20 11 -20 12 -3 31 13 14 20 16 31 8 7 -6 13 -17 13 -25z m-101
2 c14 -17 -9 -39 -33 -30 -19 7 -20 16 -4 32 15 15 23 15 37 -2z m172 -3 c13
-15 12 -15 -8 -4 -24 12 -29 21 -14 21 5 0 15 -7 22 -17z m2547 -19 c-4 -3
-12 5 -18 18 -12 22 -12 22 6 6 10 -10 15 -20 12 -24z m-2558 -15 c0 -14 -28
-29 -44 -23 -19 7 -19 9 -6 35 9 16 14 17 30 6 11 -6 20 -15 20 -18z m-116 5
c19 -7 21 -25 4 -42 -17 -17 -53 15 -37 35 13 15 12 15 33 7z m2729 -59 c-9
-15 -12 -14 -27 9 -22 35 -10 55 16 28 15 -14 18 -24 11 -37z m-2567 20 c4 -8
1 -22 -6 -30 -11 -14 -15 -14 -31 1 -14 13 -16 20 -8 31 15 17 38 17 45 -2z
m-99 -35 c-14 -24 -21 -25 -37 -5 -19 22 5 48 31 34 16 -8 17 -13 6 -29z
m2724 -39 c-15 -26 -23 -26 -39 -1 -9 16 -10 26 -1 41 l11 21 20 -20 c16 -16
18 -23 9 -41z m-2572 36 c8 -11 6 -18 -8 -31 -16 -15 -19 -15 -31 -1 -10 12
-10 18 0 30 15 19 24 19 39 2z m-99 -12 c19 -22 -5 -48 -31 -34 -15 8 -17 14
-9 29 13 24 23 25 40 5z m3730 -175 c-49 -99 -90 -185 -90 -191 0 -10 53 34
259 211 36 30 61 48 56 40 -29 -48 -330 -419 -335 -413 -4 4 -28 39 -54 77
-35 50 -45 74 -39 86 9 19 284 370 290 370 2 0 -37 -81 -87 -180z m-3590 151
c0 -13 -29 -35 -37 -28 -7 8 15 37 28 37 5 0 9 -4 9 -9z m-86 -44 c-8 -21 -18
-21 -34 -2 -10 12 -10 18 0 31 11 13 15 13 27 1 8 -7 11 -21 7 -30z m2679 22
c8 -13 6 -24 -8 -45 l-18 -28 -18 23 c-15 18 -16 27 -7 47 13 27 35 28 51 3z
m-670 -13 c48 -20 69 -50 75 -104 8 -87 -41 -142 -126 -142 -107 0 -166 122
-100 206 22 27 70 53 101 54 10 0 32 -6 50 -14z m-1973 -36 c-24 -16 -31 -11
-19 11 8 16 14 18 22 10 9 -9 8 -14 -3 -21z m2319 12 c125 -67 69 -251 -72
-239 -162 14 -149 254 13 257 14 0 41 -8 59 -18z m391 -24 c0 -3 -12 -21 -26
-38 -26 -30 -27 -31 -41 -10 -13 18 -12 23 7 50 18 26 24 28 41 17 10 -6 19
-15 19 -19z m-3566 -21 c-8 -21 -23 -22 -31 -1 -7 18 17 38 30 25 4 -4 5 -15
1 -24z m91 23 c3 -5 3 -15 0 -20 -7 -12 -45 5 -45 20 0 13 37 13 45 0z m49
-16 c20 -8 21 -28 2 -43 -17 -14 -41 11 -32 34 6 17 8 17 30 9z m-85 -46 c-12
-22 -23 -23 -39 -3 -10 12 -10 18 0 30 18 21 52 -2 39 -27z m3554 25 c14 -17
13 -21 -14 -50 -32 -37 -44 -40 -53 -17 -6 16 31 84 45 84 3 0 13 -8 22 -17z
m-3373 -3 c0 -13 -11 -13 -30 0 -12 8 -11 10 8 10 12 0 22 -4 22 -10z m-30
-50 c-13 -24 -23 -25 -40 -5 -19 22 5 48 31 34 15 -8 17 -14 9 -29z m95 30 c4
-6 1 -17 -5 -26 -14 -16 -40 -2 -40 22 0 16 36 19 45 4z m-191 -19 c9 -14 -4
-41 -19 -41 -21 0 -36 25 -23 38 14 14 35 16 42 3z m3529 -63 c-28 -29 -40
-35 -50 -27 -19 16 -17 24 18 64 30 34 33 35 51 19 18 -17 18 -19 -19 -56z
m-3283 22 c-13 -24 -23 -25 -40 -5 -19 22 5 48 31 34 15 -8 17 -14 9 -29z
m1036 29 c138 -19 260 -78 365 -176 65 -60 63 -73 -3 -22 -66 50 -192 111
-278 135 -42 12 -101 18 -165 18 -94 1 -105 -1 -168 -32 -42 -21 -79 -48 -101
-75 -204 -249 -87 -618 205 -644 70 -7 147 25 207 85 50 50 70 88 78 144 22
160 -156 296 -270 207 -97 -76 -58 -221 67 -249 l32 -7 -30 -12 c-71 -30 -187
12 -238 86 -82 117 -13 262 139 293 81 17 203 -15 243 -64 12 -14 17 -13 48
14 18 17 45 30 59 30 66 0 118 -64 97 -120 -10 -26 -9 -28 26 -39 62 -18 86
-53 86 -121 l0 -59 42 -16 c53 -20 120 -95 129 -142 11 -58 -1 -130 -29 -172
l-26 -39 25 -23 c56 -53 54 -152 -5 -201 -28 -24 -28 -25 -10 -47 21 -26 25
-81 8 -113 -16 -29 -70 -49 -107 -38 -30 8 -32 6 -61 -44 -73 -129 -227 -199
-328 -148 -102 53 -161 186 -129 296 28 97 131 163 215 138 43 -13 86 -44 101
-72 10 -18 8 -18 -36 1 -57 26 -106 19 -145 -20 -51 -51 -57 -142 -14 -207 66
-101 241 -78 302 40 24 46 19 146 -10 209 -55 121 -133 172 -262 171 -102 0
-166 -27 -230 -95 -74 -79 -89 -124 -90 -259 0 -106 2 -119 27 -167 16 -29 42
-68 58 -87 71 -80 205 -134 305 -122 69 8 246 61 306 92 27 13 49 20 49 15 0
-5 -25 -32 -55 -59 -59 -54 -120 -82 -222 -102 l-61 -12 29 -46 c105 -166 78
-338 -66 -415 -49 -26 -179 -30 -235 -8 -70 29 -117 69 -144 123 -64 129 -7
309 126 391 l50 31 -23 16 c-91 58 -163 159 -190 263 -18 75 -8 201 23 269 33
72 102 146 170 183 72 40 203 46 328 17 84 -20 85 -20 60 -1 -14 11 -42 36
-62 56 -63 59 -74 148 -29 234 24 46 24 46 -81 -32 -43 -32 -103 -69 -135 -84
-49 -24 -66 -27 -122 -23 -173 13 -321 160 -353 351 -38 230 129 470 352 506
77 12 70 12 156 0z m3358 -81 c-25 -50 -79 -154 -120 -231 -42 -76 -74 -141
-72 -143 2 -2 93 73 201 166 109 93 203 173 210 177 13 8 -18 -27 -263 -296
-85 -93 -157 -169 -160 -169 -3 0 -29 29 -58 64 -34 42 -50 69 -45 77 13 21
346 447 350 447 2 0 -18 -41 -43 -92z m-4495 68 c13 -16 5 -46 -13 -46 -24 0
-35 21 -23 41 14 23 21 24 36 5z m180 -5 c8 -5 9 -11 3 -15 -5 -3 -15 1 -22 9
-14 16 -3 20 19 6z m-274 -25 c0 -22 -14 -29 -33 -18 -17 12 -4 44 17 40 9 -2
16 -12 16 -22z m245 -1 c19 -22 -5 -48 -31 -34 -16 8 -17 13 -6 29 14 24 21
25 37 5z m3288 -67 c-24 -20 -45 -37 -48 -38 -3 0 -11 10 -18 21 -12 19 -10
25 24 60 l38 39 23 -22 24 -22 -43 -38z m-3379 25 c-26 -30 -57 -7 -39 28 11
20 12 20 31 3 14 -13 16 -20 8 -31z m181 37 c12 -7 12 -12 3 -21 -9 -9 -16 -9
-28 1 -29 24 -9 42 25 20z m2101 -19 c78 -78 -6 -209 -106 -167 -43 18 -65 52
-65 99 0 87 109 130 171 68z m-2381 -6 c19 -23 -1 -40 -30 -25 -17 9 -19 14
-9 26 15 18 23 18 39 -1z m250 -31 c0 -21 -21 -27 -38 -11 -13 13 -13 19 -2
32 10 12 16 13 26 4 8 -6 14 -17 14 -25z m95 26 c4 -6 1 -17 -5 -25 -9 -11
-17 -12 -32 -4 -15 8 -17 13 -7 25 14 16 35 18 44 4z m2892 -10 c21 -13 36
-32 44 -59 10 -34 9 -44 -7 -73 -43 -74 -143 -82 -184 -15 -31 50 -26 93 14
133 40 40 83 45 133 14z m-3088 -9 c10 -7 11 -13 1 -30 -10 -19 -14 -20 -28
-9 -9 7 -19 14 -21 15 -5 3 20 33 28 33 3 0 12 -4 20 -9z m3394 -49 c-61 -51
-72 -55 -89 -41 -15 12 -12 18 32 56 46 41 49 42 67 25 18 -16 18 -17 -10 -40z
m-3493 38 c8 -5 11 -12 8 -16 -10 -9 -38 3 -38 16 0 12 10 13 30 0z m349 -32
c-11 -20 -11 -20 -33 -12 -19 7 -21 25 -5 41 19 19 50 -6 38 -29z m-101 14
c15 -10 5 -42 -13 -42 -21 0 -36 25 -23 38 14 14 19 14 36 4z m-90 -14 c8 -8
9 -15 1 -25 -22 -26 -55 -10 -43 21 7 19 25 21 42 4z m222 -28 c-24 -15 -31
-11 -18 10 9 13 16 16 23 9 7 -7 5 -13 -5 -19z m3190 -10 c0 -4 -26 -24 -57
-45 -53 -35 -57 -36 -70 -19 -15 20 -15 19 47 67 41 32 46 34 63 19 9 -8 17
-18 17 -22z m-4260 15 c192 -31 430 -102 634 -188 66 -28 115 -52 108 -55 -6
-2 -96 19 -199 47 -271 72 -345 84 -488 79 -179 -7 -285 -54 -285 -128 0 -36
53 -100 104 -124 39 -18 402 -109 641 -160 94 -20 175 -39 180 -41 6 -3 -69
-3 -165 -1 -233 5 -440 43 -812 145 -243 67 -346 112 -413 181 -49 50 -60 119
-25 163 30 38 92 67 175 82 102 19 428 18 545 0z m998 -18 c4 -20 -25 -34 -39
-20 -14 14 1 45 20 41 9 -2 17 -11 19 -21z m-100 1 c16 -16 15 -28 0 -28 -22
0 -41 17 -34 29 9 14 19 14 34 -1z m4565 0 c-32 -42 -345 -529 -342 -532 2 -3
94 48 204 113 251 146 322 187 312 176 -15 -17 -572 -423 -575 -420 -2 2 -8
32 -13 67 -4 35 -10 71 -11 81 -2 11 79 115 211 272 118 140 216 255 219 255
2 0 0 -6 -5 -12z m-4423 -27 c0 -5 3 -16 6 -25 7 -18 -12 -21 -35 -7 -12 8
-12 12 -2 25 15 18 31 21 31 7z m3270 -31 c0 -3 -29 -22 -65 -41 -56 -29 -67
-32 -75 -19 -14 22 -14 22 47 62 53 34 59 36 75 21 10 -9 18 -19 18 -23z m37
-47 c14 -21 12 -23 -55 -57 -60 -30 -72 -33 -82 -21 -18 21 -10 32 50 69 61
38 67 39 87 9z m-307 -33 c12 -12 20 -33 20 -55 0 -46 -29 -75 -75 -75 -44 0
-75 32 -75 77 0 44 30 73 75 73 22 0 43 -8 55 -20z m350 -31 c7 -11 10 -22 8
-25 -2 -2 -37 -17 -76 -33 -69 -29 -72 -29 -82 -11 -9 17 -3 24 57 54 38 19
71 35 75 36 4 0 12 -9 18 -21z m45 -70 c4 -11 5 -22 3 -23 -1 -2 -38 -15 -81
-29 -75 -25 -77 -25 -87 -6 -10 17 -5 22 37 39 26 11 57 24 68 29 33 16 53 12
60 -10z m-4236 -2 c8 -10 7 -18 -2 -30 -10 -14 -14 -14 -31 -2 -16 12 -17 17
-6 30 15 18 24 19 39 2z m99 -4 c-2 -10 -12 -18 -23 -18 -11 0 -21 8 -23 18
-3 13 3 17 23 17 20 0 26 -4 23 -17z m84 -5 c-9 -9 -15 -9 -24 0 -9 9 -7 12
12 12 19 0 21 -3 12 -12z m62 -7 c7 -10 -3 -41 -13 -41 -17 1 -33 20 -28 34 7
17 32 22 41 7z m-96 -14 c7 -8 7 -17 -2 -28 -10 -15 -14 -15 -30 -3 -16 11
-17 16 -6 29 15 18 24 19 38 2z m185 3 c8 0 7 -4 -1 -12 -9 -9 -16 -8 -30 6
-16 18 -16 19 1 12 10 -3 24 -6 30 -6z m-283 -15 c10 -12 10 -18 0 -31 -12
-13 -15 -13 -28 0 -15 15 -10 46 6 46 5 0 15 -7 22 -15z m-85 -26 c-8 -12 -32
-12 -40 1 -11 18 5 31 26 20 11 -6 17 -15 14 -21z m429 22 c7 -10 -3 -41 -13
-41 -17 1 -33 20 -28 34 7 17 32 22 41 7z m3884 -45 c-14 -10 -164 -44 -170
-38 -22 23 -9 36 67 62 l80 27 13 -24 c8 -14 12 -26 10 -27z m-3979 30 c9 -10
8 -16 -4 -26 -19 -15 -47 3 -38 26 7 18 27 18 42 0z m2249 -148 c12 -10 22
-29 22 -43 0 -31 2 -31 -95 43 -54 41 -75 66 -92 104 -13 28 -23 52 -23 55 0
2 37 -29 83 -69 46 -40 93 -81 105 -90z m-2354 146 c20 -8 21 -28 2 -43 -17
-14 -41 11 -32 34 6 17 8 17 30 9z m291 -4 c-3 -5 -12 -7 -20 -3 -21 7 -19 13
6 13 11 0 18 -4 14 -10z m-375 -40 c-13 -24 -23 -25 -40 -5 -19 22 5 48 31 34
15 -8 17 -14 9 -29z m350 9 c0 -4 -7 -12 -15 -19 -22 -19 -48 5 -34 31 8 16
13 17 29 6 11 -6 20 -15 20 -18z m78 23 c13 -9 7 -42 -8 -42 -13 0 -32 29 -25
40 7 12 16 13 33 2z m-530 -14 c19 -19 14 -30 -8 -18 -11 6 -20 15 -20 20 0
14 14 12 28 -2z m3917 -13 c30 -30 31 -54 4 -89 -14 -17 -30 -26 -50 -26 -65
0 -93 80 -43 119 35 27 59 26 89 -4z m-3581 9 c20 -8 21 -28 2 -43 -17 -14
-41 11 -32 34 6 17 8 17 30 9z m-85 -17 c8 -10 7 -19 -4 -33 -13 -18 -15 -18
-31 -2 -14 14 -15 20 -4 32 15 19 24 20 39 3z m351 -18 c0 -4 -7 -12 -15 -19
-22 -19 -48 5 -34 31 8 16 13 17 29 6 11 -6 20 -15 20 -18z m-450 6 c17 -21
-1 -39 -29 -30 -17 5 -19 9 -8 26 14 23 21 24 37 4z m527 7 c17 -11 0 -34 -20
-26 -9 3 -17 12 -17 20 0 15 18 18 37 6z m-182 -12 c3 -5 1 -19 -6 -31 -10
-19 -12 -20 -26 -6 -9 9 -13 23 -10 31 7 18 32 21 42 6z m3795 -9 c5 -11 10
-24 10 -29 0 -8 -170 -46 -175 -39 -2 1 -6 12 -9 24 -6 19 -1 23 51 38 32 9
63 18 68 20 25 9 45 4 55 -14z m-3891 -4 c8 -10 7 -19 -4 -33 -13 -18 -15 -18
-31 -2 -14 14 -15 20 -4 32 15 19 24 20 39 3z m351 -16 c0 -5 -7 -14 -15 -21
-22 -19 -48 5 -34 31 8 15 14 17 29 9 11 -6 20 -14 20 -19z m-450 4 c14 -17 5
-35 -19 -35 -25 0 -32 10 -20 31 12 23 22 24 39 4z m-105 -5 c3 -5 -1 -10 -10
-10 -9 0 -13 5 -10 10 3 6 8 10 10 10 2 0 7 -4 10 -10z m449 1 c9 -14 -4 -41
-19 -41 -18 0 -28 17 -21 35 6 17 32 20 40 6z m-96 -14 c7 -8 6 -18 -4 -32
-13 -17 -16 -18 -29 -4 -17 17 -10 49 10 49 7 0 17 -6 23 -13z m4862 7 c0 -4
-84 -92 -187 -196 l-188 -189 70 25 c154 55 509 176 511 173 1 -1 -129 -69
-290 -151 l-292 -150 -62 64 c-34 35 -59 67 -54 71 8 9 486 358 490 359 1 0 2
-3 2 -6z m-4962 -16 c20 -20 14 -28 -18 -28 -28 0 -30 2 -20 20 12 23 21 25
38 8z m-103 -8 c3 -5 1 -10 -4 -10 -6 0 -11 5 -11 10 0 6 2 10 4 10 3 0 8 -4
11 -10z m354 -13 c14 -17 4 -27 -26 -27 -25 0 -26 1 -17 24 7 20 28 21 43 3z
m81 -21 c-6 -6 -15 -4 -24 4 -22 17 -9 32 14 18 12 -8 16 -16 10 -22z m-180 9
c11 -13 8 -15 -14 -15 -25 0 -33 10 -19 23 10 11 19 8 33 -8z m1933 -78 c33
-27 38 -37 35 -65 l-3 -32 -66 44 c-48 32 -68 52 -72 73 -4 15 -10 39 -13 52
-7 24 -6 24 37 -7 24 -18 61 -47 82 -65z m1782 72 c10 -30 -1 -36 -88 -46 -72
-9 -79 -8 -88 10 -6 10 -9 20 -7 22 4 4 138 33 160 34 9 1 20 -8 23 -20z
m-360 -75 c24 -25 16 -75 -16 -93 -24 -13 -29 -13 -53 2 -32 21 -37 80 -8 96
26 15 58 13 77 -5z m375 -8 c0 -14 -3 -27 -7 -29 -5 -3 -44 -7 -88 -8 -76 -4
-80 -3 -83 18 -3 18 3 23 35 28 21 4 45 8 53 10 8 1 32 3 53 4 33 1 37 -2 37
-23z m-1819 -76 c53 -37 59 -44 59 -75 0 -19 -2 -35 -4 -35 -9 0 -95 52 -104
63 -10 13 -24 87 -16 87 3 0 32 -18 65 -40z m1829 6 c0 -36 -10 -41 -83 -40
-98 2 -97 2 -97 23 0 23 18 28 113 30 52 1 67 -2 67 -13z m-811 -40 l23 -24
-22 -7 c-15 -5 -30 0 -48 16 -15 13 -31 27 -36 31 -6 5 6 8 25 8 25 0 43 -7
58 -24z m-81 -15 c28 -24 31 -30 18 -40 -12 -10 -24 -7 -62 19 -34 24 -43 35
-33 41 23 15 43 9 77 -20z m-58 -37 c34 -23 38 -29 28 -43 -7 -9 -13 -18 -14
-19 -2 -3 -87 42 -103 55 -8 5 22 33 35 33 8 0 32 -12 54 -26z m940 12 c0 -36
-12 -46 -55 -46 -77 0 -105 10 -105 36 0 23 2 24 80 24 62 0 80 -3 80 -14z
m-3840 -16 c-14 -5 -108 -23 -210 -40 -293 -50 -430 -104 -631 -251 -171 -126
-237 -255 -199 -388 51 -179 395 -200 845 -52 50 16 135 46 190 66 55 20 142
52 193 71 50 18 92 32 92 30 0 -2 -70 -43 -156 -91 -311 -173 -605 -306 -819
-371 -78 -23 -108 -27 -225 -28 -152 -1 -204 11 -324 71 -91 45 -209 162 -250
248 -62 127 -41 245 62 356 159 172 447 287 872 349 184 26 313 37 465 38 81
0 112 -2 95 -8z m2030 -21 c38 -23 50 -37 50 -55 0 -29 -9 -30 -59 -4 -39 19
-51 36 -51 71 0 25 1 24 60 -12z m1440 11 c27 -51 -36 -95 -72 -50 -22 27 -22
34 -2 54 22 22 61 20 74 -4z m1431 -187 c-160 -109 -288 -199 -284 -200 5 -2
141 24 303 57 161 33 297 59 302 58 5 -2 -123 -43 -284 -91 -161 -48 -328 -98
-371 -112 -70 -21 -78 -22 -72 -7 4 9 14 47 23 84 l17 67 320 170 c176 94 324
170 329 170 6 1 -122 -88 -283 -196z m-2045 142 c29 -17 41 -30 38 -40 -8 -20
-15 -19 -69 7 -42 21 -54 36 -38 51 11 12 25 8 69 -18z m963 -1 c2 -2 -1 -15
-7 -28 -10 -22 -16 -24 -49 -20 -76 10 -83 13 -83 37 0 22 3 23 68 19 37 -2
69 -6 71 -8z m-710 -51 c34 -43 7 -93 -50 -93 -30 0 -59 31 -59 62 0 26 36 58
64 58 15 0 33 -11 45 -27z m-1074 -6 c29 -17 39 -29 37 -43 -5 -28 -7 -28 -49
-11 -31 12 -39 20 -41 46 -4 37 1 38 53 8z m790 1 c29 -14 45 -29 45 -40 0
-23 -14 -23 -67 0 -33 13 -43 22 -43 40 0 27 8 28 65 0z m-2561 -7 c3 -4 -1
-17 -9 -27 -13 -18 -15 -18 -31 -2 -9 9 -13 21 -10 27 8 13 43 15 50 2z m3504
-7 c25 -5 27 -13 9 -37 -11 -16 -19 -16 -63 -7 -46 10 -51 13 -47 35 5 24 20
25 101 9z m-3602 -5 c3 -6 -1 -18 -9 -27 -13 -13 -19 -13 -32 -2 -12 10 -13
16 -4 26 14 17 35 18 45 3z m164 1 c0 -5 -2 -10 -4 -10 -3 0 -8 5 -11 10 -3 6
-1 10 4 10 6 0 11 -4 11 -10z m-261 -14 c9 -10 8 -16 -4 -26 -17 -14 -45 -7
-45 13 0 29 30 37 49 13z m3366 -17 c13 -20 -5 -59 -30 -65 -33 -8 -55 11 -55
48 0 45 61 57 85 17z m-3466 -20 c-8 -15 -14 -17 -29 -9 -25 13 -25 26 -3 39
26 14 46 -5 32 -30z m341 25 c11 -12 10 -18 -3 -31 -13 -13 -19 -14 -31 -4
-12 10 -13 16 -3 32 14 23 21 24 37 3z m-93 -38 c-8 -20 -36 -21 -43 -1 -4 8
0 22 7 31 11 13 14 13 27 0 8 -8 12 -22 9 -30z m-337 16 c0 -4 -4 -13 -9 -21
-8 -12 -12 -12 -25 -2 -21 17 -20 29 2 34 19 4 32 0 32 -11z m2934 -2 c42 -19
56 -37 40 -53 -8 -8 -87 21 -96 36 -10 16 -10 37 1 37 5 0 29 -9 55 -20z
m-2695 -3 c8 -10 7 -18 -2 -30 -10 -14 -14 -14 -31 -2 -16 12 -17 17 -6 30 15
18 24 19 39 2z m-99 -12 c10 -12 10 -18 0 -31 -11 -13 -15 -13 -27 -1 -13 13
-8 47 7 47 4 0 13 -7 20 -15z m2014 0 c28 -12 36 -21 36 -41 0 -22 -3 -24 -22
-18 -60 18 -68 24 -68 49 0 29 5 30 54 10z m1689 0 c30 -6 33 -13 15 -38 -11
-14 -19 -15 -50 -6 -35 9 -50 33 -32 51 5 6 11 5 67 -7z m-3945 -11 c-9 -9
-21 -13 -28 -9 -14 9 5 25 30 25 12 0 12 -3 -2 -16z m151 -26 c-12 -22 -23
-23 -39 -3 -10 12 -10 18 0 30 18 21 52 -2 39 -27z m407 5 c-11 -11 -19 6 -11
24 8 17 8 17 12 0 3 -10 2 -21 -1 -24z m-67 18 c10 -7 11 -13 1 -30 -10 -19
-14 -20 -28 -9 -9 7 -19 14 -21 15 -5 3 20 33 28 33 3 0 12 -4 20 -9z m-435
-10 c9 -14 -4 -41 -19 -41 -21 0 -36 25 -23 38 14 14 35 16 42 3z m336 -6 c10
-12 10 -18 0 -31 -12 -13 -15 -13 -28 0 -15 15 -10 46 6 46 5 0 15 -7 22 -15z
m-432 -7 c8 -8 9 -15 1 -25 -22 -26 -55 -10 -43 21 7 19 25 21 42 4z m342 -28
c-13 -24 -23 -25 -40 -5 -19 22 5 48 31 34 15 -8 17 -14 9 -29z m2778 -28 c3
-20 0 -22 -25 -16 -37 9 -63 23 -63 34 0 4 -3 16 -6 24 -6 15 -1 15 42 -2 36
-13 50 -23 52 -40z m-3212 37 c3 -6 0 -17 -8 -25 -12 -12 -17 -12 -33 1 -17
13 -18 16 -5 25 20 13 37 13 46 -1z m338 2 c9 -14 -4 -41 -19 -41 -21 0 -36
25 -23 38 14 14 35 16 42 3z m330 3 c20 -8 21 -28 2 -43 -17 -14 -41 11 -32
34 6 17 8 17 30 9z m-426 -16 c8 -8 9 -15 1 -25 -22 -26 -55 -10 -43 21 7 19
25 21 42 4z m342 -28 c-13 -24 -23 -25 -40 -5 -19 22 5 48 31 34 15 -8 17 -14
9 -29z m3469 24 c7 -6 -31 -44 -43 -44 -24 0 -38 18 -31 39 6 19 12 21 38 15
18 -3 34 -8 36 -10z m-3909 -10 c11 -12 11 -18 -1 -30 -13 -12 -18 -12 -34 0
-16 12 -17 16 -6 30 17 20 25 20 41 0z m339 2 c13 -16 5 -46 -13 -46 -24 0
-35 21 -23 41 14 23 21 24 36 5z m1900 3 c25 -9 31 -16 31 -41 0 -23 -4 -29
-16 -24 -9 3 -27 9 -40 12 -18 5 -24 13 -24 35 0 32 4 34 49 18z m1315 -11 c8
-13 8 -23 0 -35 -16 -26 -51 -28 -64 -4 -25 47 36 83 64 39z m-3799 2 c-3 -5
-12 -10 -18 -10 -7 0 -6 4 3 10 19 12 23 12 15 0z m155 -19 c-1 -29 -50 -36
-50 -7 0 22 22 37 37 25 7 -7 13 -14 13 -18z m-90 -12 c0 -4 -6 -12 -14 -18
-17 -14 -41 11 -32 34 5 13 9 13 26 3 11 -7 20 -16 20 -19z m425 7 c0 -22 -14
-29 -33 -18 -17 12 -4 44 17 40 9 -2 16 -12 16 -22z m341 13 c10 -17 -23 -46
-38 -31 -8 8 -8 15 2 27 15 18 26 19 36 4z m-436 -15 c11 -12 11 -18 -1 -30
-13 -12 -18 -12 -34 0 -16 12 -17 16 -6 30 17 20 25 20 41 0z m339 2 c13 -16
5 -46 -13 -46 -24 0 -35 21 -23 41 14 23 21 24 36 5z m-765 -5 c3 -4 -1 -17
-9 -27 -13 -18 -15 -18 -31 -2 -9 9 -13 21 -10 27 8 13 43 15 50 2z m325 -37
c-14 -14 -17 -14 -29 0 -10 13 -10 19 0 32 12 14 15 14 29 0 14 -15 14 -17 0
-32z m350 -1 c-6 -7 -18 -13 -26 -13 -20 0 -28 27 -13 45 11 14 15 14 31 -1
14 -13 16 -20 8 -31z m-429 6 c0 -4 -7 -12 -15 -19 -22 -19 -48 5 -34 31 8 16
13 17 29 6 11 -6 20 -15 20 -18z m329 8 c8 -10 7 -18 -2 -30 -10 -14 -14 -14
-31 -2 -16 12 -17 17 -6 30 15 18 24 19 39 2z m2755 3 c30 -11 35 -40 7 -40
-20 0 -51 25 -51 41 0 12 12 11 44 -1z m786 2 c0 -5 -11 -14 -25 -20 -26 -12
-33 -4 -13 16 14 14 38 16 38 4z m-4216 -17 c-4 -8 -14 -15 -23 -15 -14 1 -13
3 3 15 25 19 27 19 20 0z m146 -1 c11 -12 10 -18 -3 -31 -22 -23 -52 0 -36 28
12 23 22 24 39 3z m88 8 c13 -9 7 -42 -8 -42 -13 0 -32 29 -25 40 7 12 16 13
33 2z m342 -7 c10 -12 10 -18 0 -31 -11 -13 -15 -13 -27 -1 -13 13 -8 47 7 47
4 0 13 -7 20 -15z m325 -11 c-23 -17 -32 -10 -15 11 7 8 17 12 23 8 6 -4 3
-11 -8 -19z m2915 6 c22 -40 -26 -80 -58 -48 -25 25 -6 68 30 68 9 0 22 -9 28
-20z m-3320 -21 c0 -4 -7 -12 -16 -19 -12 -11 -18 -10 -31 3 -13 13 -14 19 -4
31 10 12 16 13 32 3 10 -6 19 -15 19 -18z m2109 20 c24 -8 31 -17 31 -36 0
-19 -4 -24 -16 -19 -9 3 -24 6 -35 6 -22 0 -34 22 -25 45 6 18 5 18 45 4z
m1059 -17 c4 -28 -24 -40 -45 -19 -14 13 -14 19 -3 32 18 22 44 15 48 -13z
m-3610 -5 c4 -20 -25 -34 -40 -19 -15 15 -1 44 19 40 10 -2 19 -11 21 -21z
m771 14 c10 -7 11 -13 1 -30 -10 -19 -14 -20 -28 -9 -9 7 -19 14 -21 15 -5 3
20 33 28 33 3 0 12 -4 20 -9z m-435 -10 c9 -14 -4 -41 -19 -41 -21 0 -36 25
-23 38 14 14 35 16 42 3z m330 3 c20 -8 21 -28 2 -43 -17 -14 -39 9 -30 33 7
18 7 18 28 10z m-761 -10 c3 -4 2 -15 -4 -25 -8 -16 -14 -17 -30 -8 -16 8 -18
13 -8 25 12 15 31 18 42 8z m336 -8 c9 -10 8 -16 -4 -26 -19 -15 -47 3 -38 26
7 18 27 18 42 0z m351 -15 c0 -5 -7 -14 -16 -21 -12 -11 -18 -10 -31 3 -23 22
0 52 28 36 10 -5 19 -13 19 -18z m-442 -4 c4 -20 -25 -34 -40 -19 -15 15 -1
44 19 40 10 -2 19 -11 21 -21z m-99 0 c8 -10 7 -18 -2 -30 -10 -14 -14 -14
-31 -2 -16 12 -17 17 -6 30 15 18 24 19 39 2z m435 4 c9 -14 -4 -41 -19 -41
-21 0 -36 25 -23 38 14 14 35 16 42 3z m2926 -6 c7 -9 10 -18 7 -22 -8 -7 -37
15 -37 28 0 14 16 11 30 -6z m2419 10 c-3 -2 -138 -63 -300 -135 -215 -95
-285 -130 -261 -130 18 0 173 11 344 25 171 14 312 24 314 22 2 -2 -161 -32
-363 -67 -236 -40 -368 -59 -371 -52 -1 5 -21 36 -42 66 -33 47 -37 58 -24 63
37 14 680 211 693 212 8 1 12 -1 10 -4z m-5879 -20 c19 -23 -5 -48 -30 -33
-14 9 -16 15 -7 30 14 22 21 22 37 3z m438 3 c8 -8 9 -15 1 -25 -22 -26 -55
-10 -43 21 7 19 25 21 42 4z m326 -15 c-20 -15 -34 -17 -34 -5 0 16 23 30 38
25 13 -5 12 -8 -4 -20z m-844 -14 c0 -4 -7 -12 -16 -19 -12 -11 -18 -10 -31 3
-13 13 -14 19 -4 31 10 12 16 13 32 3 10 -6 19 -15 19 -18z m420 16 c16 -20 1
-38 -23 -29 -17 6 -22 25 -10 37 10 11 19 8 33 -8z m344 -28 c-7 -20 -25 -22
-42 -5 -9 9 -8 16 5 30 14 16 19 16 30 5 8 -7 11 -21 7 -30z m-435 20 c8 -10
7 -18 -2 -30 -10 -14 -14 -14 -31 -2 -16 12 -17 17 -6 30 15 18 24 19 39 2z
m2377 0 c2 -1 1 -12 -2 -24 -5 -18 -11 -21 -42 -16 -46 7 -45 7 -37 33 6 19
12 21 42 17 20 -4 37 -8 39 -10z m-2476 -12 c10 -12 10 -18 0 -31 -11 -13 -15
-13 -27 -1 -13 13 -8 47 7 47 4 0 13 -7 20 -15z m439 1 c14 -17 -9 -39 -33
-30 -18 7 -18 7 -10 28 8 20 28 21 43 2z m-519 -25 c0 -5 -7 -14 -16 -21 -12
-11 -18 -10 -31 3 -23 22 0 52 28 36 10 -5 19 -13 19 -18z m419 16 c8 -10 7
-18 -2 -31 -11 -15 -15 -15 -32 -2 -16 12 -17 16 -6 30 16 19 25 20 40 3z
m4441 4 c0 -32 -21 -61 -44 -61 -66 0 -165 -57 -208 -119 -15 -22 -20 -23 -43
-13 -30 14 -31 27 -6 68 26 42 78 81 148 110 58 23 153 33 153 15z m-4532 -38
c-12 -15 -18 -16 -37 -4 -12 8 -12 12 -2 25 10 12 17 13 31 3 14 -8 16 -15 8
-24z m-529 -20 c-26 -30 -57 -7 -39 28 11 20 12 20 31 3 14 -13 16 -20 8 -31z
m97 36 c3 -6 -1 -18 -9 -27 -13 -13 -19 -13 -32 -2 -12 10 -13 16 -4 26 14 17
35 18 45 3z m328 5 c20 -8 21 -28 2 -43 -17 -14 -41 11 -32 34 6 17 8 17 30 9z
m-84 -44 c-13 -24 -23 -25 -40 -5 -19 22 5 48 31 34 15 -8 17 -14 9 -29z m420
31 c0 -5 -7 -11 -15 -15 -15 -5 -20 5 -8 17 9 10 23 9 23 -2z m-85 -15 c18
-13 18 -14 -4 -26 -27 -14 -45 -2 -35 23 8 21 15 21 39 3z m-429 -7 c3 -6 -1
-18 -9 -27 -13 -13 -19 -13 -32 -2 -12 10 -13 16 -4 26 14 17 35 18 45 3z
m344 -18 c0 -5 -6 -14 -14 -20 -17 -14 -41 11 -32 34 4 13 10 14 26 5 11 -6
20 -14 20 -19z m2156 16 c3 -2 2 -12 -2 -21 -9 -24 -84 -23 -84 2 0 10 3 22 8
26 7 7 70 1 78 -7z m-2597 -11 c8 -10 8 -16 -3 -25 -16 -13 -46 -5 -46 13 0
28 30 35 49 12z m340 1 c8 -10 7 -19 -4 -33 -13 -18 -15 -18 -31 -2 -14 14
-15 20 -4 32 15 19 24 20 39 3z m-440 -10 c8 -10 7 -18 -2 -31 -11 -15 -15
-15 -32 -2 -16 12 -17 16 -6 30 16 19 25 20 40 3z m341 -2 c19 -22 -5 -48 -31
-34 -16 8 -17 13 -6 29 14 24 21 25 37 5z m-441 -9 c12 -14 5 -46 -10 -46 -12
0 -27 33 -22 48 6 16 18 15 32 -2z m350 -33 c-6 -7 -18 -13 -26 -13 -20 0 -28
27 -13 45 11 14 15 14 31 -1 14 -13 16 -20 8 -31z m-101 14 c7 -8 7 -17 -2
-28 -10 -15 -14 -15 -30 -3 -16 11 -17 16 -6 29 15 18 24 19 38 2z m337 2 c8
-13 6 -15 -23 -24 -22 -6 -22 -5 -10 14 14 23 24 26 33 10z m-441 -5 c20 -8
21 -28 2 -43 -17 -14 -39 9 -30 33 7 18 7 18 28 10z m354 -36 c-35 -22 -64 2
-36 30 9 9 16 8 30 -5 14 -13 16 -18 6 -25z m-428 1 c0 -4 -7 -12 -16 -19 -12
-11 -18 -10 -31 3 -13 13 -14 19 -4 31 10 12 16 13 32 3 10 -6 19 -15 19 -18z
m2705 21 c8 0 10 -9 7 -25 -4 -22 -9 -25 -49 -25 -37 0 -44 3 -39 16 3 9 6 23
6 31 0 12 7 14 31 9 17 -3 37 -6 44 -6z m-2376 -9 c12 -8 12 -12 2 -25 -15
-18 -21 -19 -40 -7 -12 8 -12 12 -2 25 15 18 21 19 40 7z m-105 -7 c20 -8 21
-28 2 -43 -17 -14 -39 9 -30 33 7 18 7 18 28 10z m-80 -38 c-8 -22 -31 -27
-44 -10 -10 11 -10 17 0 29 15 18 52 2 44 -19z m-96 -3 c2 -8 -6 -13 -22 -13
-25 0 -33 10 -19 24 10 10 36 3 41 -11z m2652 -37 c0 -25 -21 -36 -72 -36 -30
0 -34 10 -18 41 8 14 21 19 50 19 35 0 40 -3 40 -24z m1863 -31 c124 -32 237
-116 291 -216 31 -55 31 -54 -1 -63 -18 -6 -25 -1 -42 31 -27 54 -111 129
-179 161 -50 24 -69 27 -157 27 -90 0 -105 -3 -155 -29 -30 -15 -70 -42 -87
-59 -32 -30 -33 -30 -53 -12 -26 24 -26 28 12 70 78 89 231 126 371 90z
m-1873 -37 c0 -26 -16 -35 -67 -42 -29 -4 -53 -5 -53 -2 0 3 4 16 10 30 8 23
15 26 60 26 33 0 50 -4 50 -12z m740 -29 c53 -25 130 -83 130 -98 0 -4 -6 -15
-13 -25 -13 -18 -16 -17 -65 17 -103 70 -232 90 -324 49 -79 -35 -158 -120
-177 -189 -5 -20 -16 -29 -39 -34 -43 -9 -42 8 3 99 42 83 131 172 197 196 69
25 218 17 288 -15z m-2495 12 c-6 -5 -46 -36 -91 -69 -232 -171 -470 -398
-598 -570 -204 -274 -310 -637 -277 -951 14 -136 50 -279 97 -386 28 -64 37
-101 45 -185 31 -329 111 -638 223 -855 22 -44 43 -84 45 -90 14 -36 -217 221
-315 350 -324 425 -472 859 -434 1272 31 343 154 596 420 864 175 177 368 319
704 520 175 105 201 119 181 100z m5214 -15 c-2 -2 -148 -34 -324 -71 -176
-37 -323 -71 -328 -75 -4 -3 127 -31 290 -61 164 -29 290 -55 281 -57 -17 -3
-750 67 -755 72 -3 3 36 95 40 97 1 0 169 22 372 49 355 46 433 54 424 46z
m-3475 -48 c-9 -30 -4 -27 -71 -43 -77 -19 -75 -20 -60 18 11 26 20 33 53 38
79 12 86 11 78 -13z m1830 -17 c3 -5 -8 -38 -24 -75 -30 -66 -30 -66 -71 -66
-35 0 -40 3 -34 18 4 9 16 40 27 69 11 29 28 54 37 56 29 8 60 7 65 -2z m-494
-23 c48 -15 106 -58 142 -107 25 -35 28 -44 17 -57 -11 -13 -18 -10 -53 25
-63 61 -125 86 -221 86 -100 0 -157 -25 -231 -102 -47 -49 -94 -70 -94 -42 0
21 63 101 103 131 107 78 220 101 337 66z m363 -49 c-36 -84 -56 -99 -81 -58
-17 27 1 84 31 100 21 12 70 28 74 24 2 -1 -9 -31 -24 -66z m213 56 l36 -15
-28 -47 c-15 -27 -32 -56 -38 -66 -9 -14 -18 -17 -46 -12 -19 4 -36 8 -38 10
-4 4 67 145 73 145 3 0 22 -7 41 -15z m-1926 -34 c0 -5 -4 -20 -9 -33 -7 -19
-23 -27 -82 -42 -41 -10 -80 -20 -88 -23 -9 -4 -6 9 10 38 22 40 29 45 79 55
71 15 90 16 90 5z m659 -66 c13 -36 22 -67 20 -69 -2 -2 -20 -1 -39 1 -33 4
-38 9 -58 62 -12 31 -22 60 -22 64 0 4 17 7 38 7 38 0 38 0 61 -65z m67 45
c14 -6 24 -23 32 -60 16 -69 16 -68 -20 -61 -29 6 -36 14 -55 66 -12 33 -22
64 -22 68 -1 8 18 4 65 -13z m1293 -6 c30 -25 31 -27 15 -53 -42 -71 -48 -75
-87 -60 -21 7 -37 16 -37 20 0 12 64 119 71 119 4 0 21 -12 38 -26z m-1463
-39 c13 -31 24 -58 24 -60 0 -3 -18 -5 -39 -5 -36 0 -40 3 -55 40 -9 22 -16
42 -16 45 0 4 50 34 58 35 2 0 14 -25 28 -55z m-2203 -21 c-7 -18 -17 -18 -33
1 -10 12 -10 18 1 31 12 14 14 14 25 -1 7 -9 10 -23 7 -31z m2450 32 c20 -16
22 -36 3 -61 -12 -17 -13 -16 -20 11 -4 16 -9 37 -12 47 -6 20 4 21 29 3z
m-2533 -25 c0 -15 -28 -33 -40 -26 -7 5 -5 12 7 21 21 16 33 18 33 5z m2198
-16 c16 -34 16 -32 -18 -37 -16 -3 -30 -1 -30 3 0 14 23 59 30 59 4 0 12 -11
18 -25z m-488 6 c0 -19 -53 -50 -137 -80 -47 -18 -90 -30 -95 -29 -5 2 6 20
24 40 27 31 46 41 108 57 89 23 100 24 100 12z m2110 -62 c0 -14 -6 -33 -14
-44 -13 -18 -14 -18 -39 1 -33 24 -33 30 -1 78 l27 39 13 -24 c7 -13 13 -36
14 -50z m-3772 28 c4 -22 -24 -33 -43 -17 -12 10 -13 16 -4 27 16 18 43 13 47
-10z m79 8 c3 -9 3 -19 -1 -22 -8 -9 -37 18 -30 28 8 14 24 11 31 -6z m2810
-121 c-2 -2 -18 1 -36 7 -31 11 -32 13 -29 63 3 48 5 51 33 56 l30 5 3 -64 c2
-35 1 -65 -1 -67z m-2988 113 c8 -11 6 -18 -8 -31 -16 -15 -19 -15 -31 -1 -10
12 -10 18 0 30 15 19 24 19 39 2z m3074 -44 c-10 -92 -14 -102 -40 -92 -20 7
-23 16 -23 56 0 76 8 93 41 93 l29 0 -7 -57z m76 23 c8 -10 -12 -142 -23 -154
-3 -2 -14 2 -26 8 -18 10 -21 17 -16 51 3 21 9 56 12 78 4 32 9 38 24 34 11
-3 24 -10 29 -17z m1151 -4 c0 -26 -3 -28 -63 -39 -77 -13 -160 -51 -228 -105
-49 -38 -51 -39 -70 -22 -10 9 -19 21 -19 26 0 20 75 88 128 116 70 38 117 50
195 51 56 1 57 1 57 -27z m-1404 -59 c-10 -10 -56 8 -56 21 0 8 12 24 28 36
l27 22 3 -37 c2 -20 1 -39 -2 -42z m-2747 54 c8 -10 7 -17 -1 -25 -26 -26 -60
-4 -38 23 15 18 24 19 39 2z m-99 -13 c11 -12 11 -18 -1 -30 -13 -12 -18 -12
-34 0 -16 12 -17 16 -6 30 17 20 25 20 41 0z m180 1 c10 -12 10 -15 -3 -15 -8
0 -20 7 -27 15 -10 12 -10 15 3 15 8 0 20 -7 27 -15z m5007 9 c-3 -3 -12 -4
-19 -1 -8 3 -5 6 6 6 11 1 17 -2 13 -5z m-5288 -18 c11 -13 6 -46 -8 -46 -3 0
-15 7 -25 15 -16 12 -17 17 -6 30 15 19 24 19 39 1z m3261 -16 c9 -18 6 -27
-21 -58 l-32 -36 7 39 c14 81 25 94 46 55z m-3010 -6 c11 -12 11 -18 -1 -29
-12 -12 -17 -12 -33 0 -16 12 -17 17 -6 30 16 19 24 19 40 -1z m-93 -34 c-14
-24 -21 -25 -37 -5 -19 22 5 48 31 34 16 -8 17 -13 6 -29z m174 24 c12 -14 11
-16 -5 -13 -11 2 -21 10 -24 17 -5 17 13 15 29 -4z m-427 -9 c-4 -8 -11 -15
-16 -15 -6 0 -5 6 2 15 7 8 14 15 16 15 2 0 1 -7 -2 -15z m166 -16 c0 -4 -7
-12 -15 -19 -22 -19 -48 5 -34 31 8 16 13 17 29 6 11 -6 20 -15 20 -18z m-100
-15 c0 -22 -29 -29 -47 -11 -13 13 -14 19 -4 31 16 19 51 5 51 -20z m4969 -4
c194 -16 356 -32 359 -35 3 -3 -144 -5 -326 -5 -183 0 -332 -3 -332 -7 0 -5
117 -71 260 -147 143 -77 259 -141 256 -143 -2 -3 -543 206 -683 264 -9 3 -7
15 7 41 11 20 20 45 20 54 0 15 7 17 43 13 23 -3 201 -19 396 -35z m-4635 -13
c-8 -21 -18 -21 -34 -2 -10 12 -10 18 0 31 11 13 15 13 27 1 8 -7 11 -21 7
-30z m2159 19 c30 -21 38 -22 47 -11 15 18 72 29 103 21 13 -3 36 -17 50 -32
24 -24 29 -25 62 -14 20 7 52 9 70 6 40 -8 93 -49 106 -83 8 -21 13 -23 47
-17 53 8 125 -24 152 -68 30 -50 35 -92 15 -143 -19 -51 -51 -80 -106 -97 -75
-22 -171 31 -185 101 -6 29 -10 31 -48 31 -48 0 -101 29 -123 68 -14 25 -21
28 -69 27 -42 0 -57 5 -78 24 -22 21 -29 23 -51 13 -36 -16 -86 -15 -112 3
-18 13 -24 13 -53 -2 -29 -14 -35 -14 -65 0 -31 15 -34 15 -51 -5 -15 -16 -26
-19 -56 -14 -20 3 -40 2 -43 -4 -9 -14 -48 -13 -63 2 -30 30 7 95 45 81 8 -3
21 4 30 16 11 17 23 21 51 19 28 -2 42 3 64 26 25 24 35 28 68 23 30 -4 43 -1
57 15 39 43 86 48 136 14z m1202 9 c147 -39 262 -143 308 -279 9 -27 15 -51
12 -54 -2 -2 -20 -1 -39 2 -31 6 -38 14 -61 65 -33 73 -93 132 -168 167 -111
50 -257 29 -339 -50 -29 -28 -49 -26 -78 8 -11 14 -7 21 26 52 66 61 160 101
244 103 20 1 62 -6 95 -14z m-3445 -24 c0 -5 -7 -14 -15 -21 -22 -19 -48 5
-34 31 8 15 14 17 29 9 11 -6 20 -14 20 -19z m-354 3 c-3 -9 -6 -18 -6 -20 0
-2 -7 -4 -15 -4 -18 0 -19 12 -3 28 17 17 31 15 24 -4z m252 -17 c4 -20 -25
-34 -40 -19 -15 15 -1 44 19 40 10 -2 19 -11 21 -21z m-99 0 c8 -10 7 -18 -2
-31 -11 -15 -15 -15 -32 -2 -16 12 -17 16 -6 30 16 19 25 20 40 3z m-99 -13
c11 -12 11 -18 -1 -29 -12 -11 -17 -12 -32 -1 -10 8 -15 20 -11 30 8 20 28 21
44 0z m-99 -38 c-10 -12 -18 -13 -33 -5 -19 10 -19 11 -2 30 16 17 19 18 32 5
13 -12 13 -18 3 -30z m444 35 c6 -11 -33 -36 -42 -27 -3 3 -3 12 0 21 7 17 33
20 42 6z m-97 -14 c7 -8 7 -17 -2 -28 -10 -15 -14 -15 -30 -3 -16 11 -17 16
-6 29 15 18 24 19 38 2z m-98 -12 c19 -22 -5 -48 -31 -34 -15 8 -17 14 -9 29
13 24 23 25 40 5z m-91 -37 c-12 -22 -23 -23 -39 -3 -10 12 -10 18 0 30 18 21
52 -2 39 -27z m-89 1 c0 -4 -7 -12 -16 -19 -12 -11 -18 -10 -31 3 -13 13 -14
19 -4 31 10 12 16 13 32 3 10 -6 19 -15 19 -18z m-100 -8 c0 -5 -7 -14 -16
-21 -12 -11 -18 -10 -31 3 -23 22 0 52 28 36 10 -5 19 -13 19 -18z m339 -17
c-6 -8 -17 -14 -25 -14 -20 0 -27 19 -14 35 9 11 17 12 32 4 15 -8 17 -13 7
-25z m-89 -3 c0 -5 -7 -14 -15 -21 -12 -10 -18 -10 -30 0 -21 18 2 52 27 39
10 -5 18 -13 18 -18z m-101 -4 c8 -11 6 -18 -8 -31 -16 -15 -20 -15 -31 -1
-15 18 -7 45 13 45 8 0 20 -6 26 -13z m-101 -10 c7 -8 7 -17 -2 -29 -12 -16
-15 -16 -35 -2 -17 13 -20 19 -10 30 14 17 33 18 47 1z m1877 -9 c-46 -153
-222 -562 -356 -828 -129 -257 -207 -391 -408 -704 -254 -395 -364 -587 -520
-907 -152 -311 -267 -611 -357 -934 -10 -33 -19 -55 -20 -50 -2 6 -28 96 -58
201 -68 237 -104 330 -218 558 -102 204 -160 343 -211 501 -36 113 -90 340
-85 356 2 4 32 -14 67 -42 183 -142 383 -207 603 -197 168 9 348 67 464 150
91 65 186 222 220 365 20 80 22 245 5 318 -44 183 -189 318 -387 360 -170 36
-319 -4 -435 -116 -73 -71 -103 -138 -104 -229 0 -64 4 -82 27 -122 47 -80
138 -108 223 -69 108 49 147 180 78 262 -31 36 -95 68 -137 69 -24 0 -27 2
-16 15 7 8 36 26 65 40 163 80 328 -19 364 -221 31 -172 -71 -354 -250 -444
-101 -50 -210 -75 -297 -67 -175 17 -342 168 -409 371 -36 111 -38 273 -5 389
69 244 248 462 540 661 109 74 334 186 374 186 3 0 10 -30 13 -67 15 -141 68
-222 188 -285 127 -67 215 -189 238 -329 6 -35 13 -82 17 -104 l7 -40 22 36
c12 19 52 109 89 200 76 188 140 320 195 400 103 152 242 262 404 320 69 24
78 24 70 -3z m-1977 -1 c7 -8 7 -17 -2 -29 -11 -15 -16 -15 -30 -5 -11 8 -15
19 -10 30 7 20 27 22 42 4z m329 -14 c-9 -9 -19 -14 -23 -11 -10 10 6 28 24
28 15 0 15 -1 -1 -17z m3560 9 c9 -5 -3 -30 -39 -85 -28 -42 -54 -77 -59 -77
-5 0 -13 9 -19 20 -9 16 -4 32 27 85 37 64 58 78 90 57z m-3639 -15 c7 -8 7
-17 -2 -29 -11 -15 -15 -16 -32 -4 -15 12 -16 16 -5 30 16 19 25 20 39 3z
m3533 -24 c-11 -21 -26 -46 -33 -56 -13 -17 -15 -17 -27 -3 -26 31 18 93 67
95 9 1 7 -10 -7 -36z m-3631 12 c19 -23 -5 -48 -30 -33 -14 9 -16 15 -7 30 14
22 21 22 37 3z m3819 6 c10 -7 -3 -30 -59 -100 -39 -50 -75 -91 -80 -91 -26 0
-14 39 37 115 54 82 72 95 102 76z m-3917 -15 c15 -11 15 -16 5 -31 -12 -15
-16 -16 -35 -4 -16 10 -18 17 -11 31 11 21 18 22 41 4z m4998 -121 c165 -71
297 -131 292 -133 -4 -1 -122 27 -262 63 -140 35 -256 63 -258 61 -2 -3 89
-82 202 -176 113 -95 206 -174 206 -176 0 -5 -86 49 -330 205 -120 76 -184
123 -181 132 2 8 6 47 9 87 2 40 8 71 13 70 4 -2 143 -61 309 -133z m-5093 83
c-14 -22 -21 -22 -37 -3 -19 23 5 48 30 33 14 -9 16 -15 7 -30z m4044 -55
c-42 -47 -151 -130 -151 -115 0 9 32 52 119 161 l35 44 18 -23 c18 -22 17 -23
-21 -67z m-3793 40 c-6 -7 -16 -13 -24 -13 -19 0 -27 19 -14 35 9 11 16 12 30
2 14 -8 16 -15 8 -24z m-348 2 c-7 -9 -15 -13 -17 -11 -7 7 7 26 19 26 6 0 6
-6 -2 -15z m160 -21 c0 -20 -27 -29 -45 -14 -23 19 -1 54 25 40 11 -6 20 -17
20 -26z m94 27 c9 -14 -4 -41 -19 -41 -21 0 -36 25 -23 38 14 14 35 16 42 3z
m-194 -38 c0 -20 -27 -28 -45 -13 -14 11 -14 15 1 31 13 14 20 16 31 8 7 -6
13 -18 13 -26z m240 -3 c0 -5 -9 -14 -20 -20 -15 -8 -20 -8 -20 3 0 8 3 17 7
20 10 10 33 8 33 -3z m3887 -15 c-4 -8 -14 -15 -23 -15 -16 0 -16 2 1 20 20
22 31 20 22 -5z m-4227 0 c-7 -9 -15 -13 -17 -11 -7 7 7 26 19 26 6 0 6 -6 -2
-15z m250 -1 c11 -12 11 -18 -1 -30 -13 -12 -18 -12 -34 0 -16 12 -17 16 -6
30 17 20 25 20 41 0z m-100 -10 c11 -12 11 -18 -1 -30 -13 -12 -18 -12 -34 0
-16 12 -17 16 -6 30 17 20 25 20 41 0z m-100 -9 c10 -12 10 -18 0 -30 -18 -21
-52 2 -39 27 12 22 23 23 39 3z m2815 -3 c28 -17 30 -17 47 0 26 26 80 23 107
-6 15 -16 29 -22 46 -18 29 5 53 -12 66 -45 5 -13 17 -23 27 -23 21 0 42 -18
42 -38 0 -8 10 -22 23 -32 18 -16 20 -22 10 -38 -9 -16 -7 -28 12 -66 68 -135
26 -255 -102 -292 -67 -19 -115 -10 -161 30 -66 57 -83 151 -37 203 l24 28 1
-38 c0 -81 51 -125 133 -114 109 15 132 142 40 229 -97 92 -273 47 -339 -87
-23 -49 -26 -64 -22 -128 13 -195 147 -326 323 -314 172 11 300 140 313 317
l5 70 34 -30 c18 -16 46 -32 61 -36 15 -3 32 -7 38 -9 25 -8 94 19 119 46 35
36 45 110 21 157 -29 56 -107 79 -154 46 -18 -13 -22 -13 -22 -1 0 27 41 67
81 77 46 13 87 6 141 -21 85 -43 98 -162 27 -252 -30 -37 -31 -57 -3 -57 27 0
111 -89 135 -143 42 -96 29 -206 -33 -274 l-20 -21 37 -34 c87 -79 42 -209
-75 -212 -53 -1 -85 25 -108 86 l-20 53 -60 7 c-71 8 -128 35 -175 83 l-34 35
-39 -16 c-52 -22 -108 -13 -145 22 -17 16 -32 38 -35 49 -5 19 -12 20 -123 20
l-119 0 5 -75 c3 -41 1 -92 -5 -113 l-11 -38 32 8 c18 4 70 8 117 8 71 0 94
-5 140 -26 84 -40 135 -90 177 -175 32 -66 37 -87 41 -164 4 -70 0 -103 -17
-158 -36 -120 -127 -223 -240 -273 -181 -80 -378 -72 -780 31 -63 16 -118 27
-122 25 -4 -3 -10 -24 -13 -48 -17 -109 -110 -233 -211 -279 -102 -45 -252
-23 -328 50 -56 53 -72 98 -72 199 l1 92 -30 -17 c-16 -9 -119 -104 -228 -211
-109 -107 -198 -190 -198 -186 0 26 147 223 225 300 255 255 550 333 642 170
68 -120 -31 -280 -153 -246 -36 10 -84 46 -84 63 0 4 18 8 40 8 91 0 140 105
78 166 -38 38 -102 43 -148 12 -104 -71 -112 -262 -14 -347 60 -53 181 -54
264 -3 89 55 134 145 147 290 3 39 8 72 11 72 3 0 93 -25 201 -55 108 -30 237
-62 286 -71 124 -24 302 -24 380 0 202 61 307 187 309 371 2 212 -112 349
-302 363 -118 8 -191 -29 -236 -120 -49 -99 -24 -205 60 -254 39 -23 53 -26
114 -22 60 3 74 8 98 31 23 23 27 36 27 83 0 49 -4 59 -28 80 -36 31 -98 33
-127 4 l-20 -20 0 23 c0 70 80 119 160 97 162 -44 174 -265 21 -402 -120 -108
-331 -143 -551 -92 -36 8 -153 44 -262 80 -238 79 -306 94 -424 94 -171 0
-297 -58 -516 -237 -43 -35 -78 -59 -78 -53 0 23 141 149 245 220 150 102 142
91 134 185 -15 158 -10 170 21 61 16 -54 32 -101 35 -105 4 -3 111 -6 238 -5
202 0 246 3 337 23 352 76 571 250 571 455 0 104 -52 203 -142 269 -49 36
-142 68 -178 61 -40 -8 -113 26 -141 66 -52 73 -27 182 52 225 35 19 36 20 32
70 -6 60 8 91 56 123 25 17 46 22 74 20 33 -2 41 1 46 17 8 30 22 49 50 68 32
22 67 21 105 -1z m-2907 -32 c-7 -11 -16 -20 -20 -20 -5 0 -3 9 4 20 7 11 16
20 20 20 5 0 3 -9 -4 -20z m262 -9 c0 -5 -7 -14 -16 -21 -12 -11 -18 -10 -31
3 -23 22 0 52 28 36 10 -5 19 -13 19 -18z m-102 -7 c1 -1 0 -9 -4 -18 -8 -20
-28 -21 -44 -1 -19 23 6 50 29 33 9 -7 17 -13 19 -14z m-98 -13 c0 -5 -7 -14
-15 -21 -22 -19 -48 5 -34 31 8 15 14 17 29 9 11 -6 20 -14 20 -19z m-108 -33
c-7 -7 -12 -8 -12 -2 0 14 12 26 19 19 2 -3 -1 -11 -7 -17z m256 10 c8 -8 9
-15 1 -25 -22 -26 -55 -10 -43 21 7 19 25 21 42 4z m-99 -11 c8 -10 7 -18 -2
-31 -11 -14 -15 -15 -31 -3 -12 9 -17 20 -13 31 8 19 30 21 46 3z m-100 -10
c8 -10 7 -18 -2 -30 -10 -14 -14 -14 -31 -2 -16 12 -17 17 -6 30 15 18 24 19
39 2z m4511 -23 c60 -27 160 -120 160 -148 0 -7 -15 -21 -34 -31 l-34 -18 -32
36 c-49 56 -130 91 -210 91 -56 0 -79 -6 -134 -33 -37 -18 -68 -31 -70 -29
-37 55 -38 59 -20 79 80 88 244 111 374 53z m-4361 -40 c-14 -14 -17 -14 -29
0 -10 13 -10 19 0 32 12 14 15 14 29 0 14 -15 14 -17 0 -32z m-94 21 c18 -14
18 -16 2 -32 -16 -16 -18 -16 -33 -1 -9 9 -14 24 -11 32 8 20 16 20 42 1z
m5095 -178 c146 -99 270 -184 275 -189 12 -11 -191 84 -362 171 -68 33 -123
59 -123 56 0 -5 195 -340 258 -445 33 -54 -19 7 -177 210 l-160 205 -1 93 c0
72 3 91 13 86 6 -4 131 -88 277 -187z m-5180 154 c0 -5 -7 -14 -16 -21 -12
-11 -18 -10 -31 3 -23 22 0 52 28 36 10 -5 19 -13 19 -18z m144 -20 c3 -4 -1
-16 -8 -27 -12 -15 -16 -16 -30 -5 -12 10 -14 17 -5 27 13 16 35 18 43 5z
m-95 -14 c8 -11 7 -18 -7 -31 -18 -15 -20 -15 -35 2 -13 14 -14 21 -5 30 16
16 33 15 47 -1z m-100 -11 c9 -10 8 -16 -4 -26 -17 -14 -45 -7 -45 13 0 29 30
37 49 13z m149 -39 c4 -21 -25 -34 -40 -19 -8 8 -8 16 2 27 16 19 34 15 38 -8z
m-99 -1 c11 -13 6 -46 -8 -46 -3 0 -15 7 -25 15 -16 12 -17 17 -6 30 15 19 24
19 39 1z m-95 -39 c-3 -9 -10 -17 -15 -17 -14 0 -22 27 -15 47 6 15 8 15 22 2
8 -9 12 -23 8 -32z m156 -16 c0 -3 -4 -12 -9 -20 -8 -12 -12 -12 -25 -2 -12
10 -13 18 -5 33 8 15 13 17 25 7 8 -6 14 -14 14 -18z m-90 -15 c0 -8 -6 -19
-13 -25 -21 -17 -55 23 -37 44 14 17 50 4 50 -19z m-100 -3 c0 -5 -5 -15 -10
-23 -8 -12 -10 -11 -10 8 0 12 5 22 10 22 6 0 10 -3 10 -7z m148 -26 c7 -8 7
-17 -2 -29 -11 -15 -16 -15 -30 -5 -11 8 -15 19 -10 30 7 20 27 22 42 4z m-98
-13 c11 -12 11 -18 -1 -30 -20 -19 -53 3 -43 29 8 21 27 22 44 1z m59 -66
c-12 -22 -23 -23 -39 -3 -10 12 -10 18 0 30 18 21 52 -2 39 -27z m-89 1 c0 -4
-7 -12 -16 -19 -12 -11 -18 -10 -31 3 -13 13 -14 19 -4 31 10 12 16 13 32 3
10 -6 19 -15 19 -18z m2393 -23 c42 -41 67 -111 67 -182 l0 -53 48 -6 c76 -11
145 -36 174 -66 24 -23 28 -36 28 -83 0 -69 -10 -95 -56 -146 -71 -79 -212
-129 -419 -150 -60 -6 -143 -10 -184 -8 l-75 3 -11 52 c-7 29 -10 55 -7 58 3
3 71 5 151 5 177 0 258 12 331 48 63 31 100 79 100 129 0 57 -50 90 -166 108
l-42 6 14 46 c19 64 17 116 -6 172 -17 37 -19 53 -11 74 14 35 23 34 64 -7z
m2688 -128 c73 -90 153 -188 178 -218 54 -65 54 -65 -167 129 -96 84 -176 151
-178 149 -2 -3 30 -129 72 -282 41 -153 73 -280 71 -282 -3 -3 -182 395 -255
566 -1 3 15 13 35 23 21 9 54 30 73 46 19 17 36 30 37 31 0 0 61 -73 134 -162z
m-5032 119 c8 -11 6 -18 -8 -31 -16 -15 -20 -15 -31 -1 -15 18 -7 45 13 45 8
0 20 -6 26 -13z m-94 -16 c3 -5 1 -12 -5 -16 -5 -3 -10 1 -10 9 0 18 6 21 15
7z m45 -36 c10 -12 10 -18 0 -30 -18 -21 -52 2 -39 27 12 22 23 23 39 3z m32
-55 c-6 -16 -11 -20 -16 -11 -4 6 -2 19 5 27 16 20 21 12 11 -16z m-67 0 c3
-5 1 -18 -4 -27 -6 -10 -11 -13 -11 -6 0 6 -3 18 -6 27 -7 17 11 22 21 6z
m4884 -295 c61 -148 109 -271 107 -272 -2 -2 -61 87 -131 197 -70 110 -129
199 -131 197 -2 -1 15 -115 37 -251 21 -137 38 -250 36 -252 -1 -2 -35 107
-76 241 l-73 243 35 46 c19 26 44 67 54 91 10 24 21 41 25 37 3 -4 56 -128
117 -277z m-4839 246 c0 -11 -5 -23 -11 -27 -15 -9 -33 12 -26 30 9 23 37 20
37 -3z m-30 -62 c0 -6 -4 -7 -10 -4 -5 3 -10 11 -10 16 0 6 5 7 10 4 6 -3 10
-11 10 -16z m2943 -77 c31 -27 18 -31 -45 -13 -39 11 -64 24 -66 33 -3 14 4
14 45 6 26 -6 56 -17 66 -26z m-29 -38 c59 -16 86 -35 86 -60 0 -8 -25 -4 -80
14 -60 20 -80 31 -80 44 0 22 -1 22 74 2z m19 -73 c52 -18 67 -27 67 -42 0
-25 -4 -24 -86 9 -45 19 -70 35 -73 47 -2 12 2 16 10 13 8 -3 44 -15 82 -27z
m1702 -207 c42 -130 74 -238 72 -240 -2 -2 -41 65 -87 148 -46 84 -95 171
-108 193 l-23 40 5 -245 c3 -135 4 -240 1 -235 -5 13 -85 478 -85 498 0 9 13
17 33 21 25 5 68 26 113 55 1 1 36 -105 79 -235z m-1703 143 c43 -19 56 -30
52 -41 -3 -9 -10 -16 -15 -16 -16 0 -149 70 -149 78 0 26 11 24 112 -21z m28
-87 c0 -3 -4 -11 -9 -19 -7 -11 -22 -6 -75 24 -70 39 -81 49 -71 65 6 9 155
-58 155 -70z m-100 -11 c68 -39 70 -42 54 -60 -16 -17 -19 -17 -78 23 -33 23
-63 42 -65 44 -4 4 7 34 13 34 2 0 36 -19 76 -41z m1530 -233 c22 -120 40
-223 40 -230 -1 -6 -26 41 -56 104 l-55 115 -13 -30 c-7 -16 -30 -81 -50 -142
-21 -62 -40 -113 -42 -113 -3 0 -2 70 2 156 l7 157 42 41 c33 33 46 57 60 111
11 38 20 64 22 59 1 -5 20 -107 43 -228z m-1571 182 c54 -37 59 -44 47 -57
-10 -10 -19 -11 -28 -4 -70 52 -107 87 -102 94 9 15 20 11 83 -33z m-41 -42
c46 -36 50 -42 36 -53 -14 -10 -25 -5 -70 34 -54 45 -60 54 -48 66 8 8 16 4
82 -47z m-62 -23 c58 -51 62 -58 38 -67 -18 -7 -118 89 -109 104 9 15 12 13
71 -37z m-49 -29 c42 -43 47 -64 18 -64 -14 0 -95 86 -95 101 0 23 38 4 77
-37z m-62 -21 c42 -47 47 -63 20 -63 -14 0 -85 85 -85 101 0 21 25 6 65 -38z
m-47 -27 c27 -38 29 -45 15 -50 -9 -4 -17 -5 -18 -4 -43 60 -65 100 -60 109 9
13 23 1 63 -55z m-61 -5 c25 -39 29 -50 17 -55 -13 -5 -54 47 -71 90 -13 34
25 9 54 -35z m-112 -11 c29 -58 30 -60 10 -60 -12 0 -55 78 -55 101 0 24 22 4
45 -41z m58 5 c32 -54 32 -55 9 -55 -12 0 -26 16 -40 44 -25 50 -26 56 -9 56
6 0 24 -20 40 -45z m-159 -12 c19 -55 20 -63 6 -63 -12 0 -24 27 -35 78 -10
49 11 39 29 -15z m50 4 c19 -52 20 -57 3 -57 -7 0 -20 23 -29 50 -21 65 1 71
26 7z m-234 -18 c0 -28 -4 -39 -15 -39 -11 0 -15 11 -15 38 0 21 3 42 6 45 14
13 24 -6 24 -44z m42 9 c5 -47 2 -61 -13 -53 -12 8 -12 95 0 95 5 0 11 -19 13
-42z m46 0 c5 -24 5 -47 1 -52 -13 -14 -18 -4 -25 47 -9 60 11 64 24 5z m51
-2 c14 -56 14 -56 -3 -56 -8 0 -17 14 -21 33 -4 17 -9 40 -11 50 -3 10 0 17 9
17 9 0 19 -17 26 -44z m-189 -6 c0 -29 -4 -40 -15 -40 -17 0 -18 4 -9 49 9 44
24 39 24 -9z m2070 -242 l0 -122 -44 43 -44 43 -35 -63 c-19 -35 -44 -82 -56
-104 l-21 -40 6 110 c4 61 7 110 8 110 12 2 120 83 146 110 18 19 35 35 37 35
2 0 3 -55 3 -122z m-290 -279 c0 -76 -3 -98 -12 -93 -7 4 -40 10 -74 13 l-63
6 71 88 c39 48 73 87 75 87 2 0 3 -45 3 -101z m-2080 -134 c0 -8 -70 -94 -156
-190 -152 -171 -157 -176 -176 -159 -18 17 -14 23 154 191 95 95 174 173 175
173 2 0 3 -7 3 -15z m850 -15 c0 -5 -5 -10 -11 -10 -5 0 -7 5 -4 10 3 6 8 10
11 10 2 0 4 -4 4 -10z m-20 -53 c0 -18 -2 -19 -10 -7 -13 20 -13 43 0 35 6 -3
10 -16 10 -28z m-940 -166 c-72 -94 -134 -171 -139 -171 -4 0 -16 6 -26 14
-17 12 -8 25 130 180 196 221 214 209 35 -23z m915 140 c9 -18 11 -32 5 -36
-11 -7 -42 49 -33 59 10 9 11 8 28 -23z m-866 -177 c-57 -86 -107 -161 -110
-166 -8 -12 -49 -1 -49 13 0 6 55 82 122 170 160 208 181 199 37 -17z m845 88
c-5 -13 -11 -7 -26 26 -10 23 -16 47 -12 54 10 16 47 -60 38 -80z m-40 3 c17
-44 15 -89 -3 -69 -13 15 -41 106 -35 115 9 15 20 2 38 -46z m-674 22 c-1 -23
-176 -312 -191 -314 -8 -2 -20 1 -27 5 -10 7 15 50 95 169 98 145 124 175 123
140z m637 -70 c16 -45 19 -65 11 -74 -6 -8 -13 -12 -15 -9 -9 9 -41 145 -35
150 9 9 15 -2 39 -67z m-672 -118 c-65 -131 -80 -154 -98 -151 -30 4 -31 8 -9
44 10 18 52 89 92 157 103 175 112 146 15 -50z m629 87 c18 -70 17 -106 -2
-106 -5 0 -14 30 -21 68 -7 37 -15 77 -18 90 -3 15 -1 22 9 22 9 0 20 -26 32
-74z m-504 40 c0 -1 -28 -69 -63 -151 -59 -140 -65 -150 -88 -147 -13 2 -25 5
-27 7 -2 2 31 71 72 154 57 113 80 149 91 145 8 -4 15 -7 15 -8z m445 -8 c32
-139 34 -163 17 -176 -15 -12 -18 -6 -29 65 -15 99 -16 133 -3 133 5 0 12 -10
15 -22z m-35 -100 c12 -94 11 -102 -5 -115 -10 -7 -19 -12 -21 -10 -1 1 -5 53
-9 115 -6 95 -4 112 8 112 11 0 18 -24 27 -102z m-412 -58 c-47 -138 -53 -150
-72 -144 -12 4 -22 7 -23 9 -2 1 23 65 55 143 42 104 62 142 74 142 14 0 9
-22 -34 -150z m92 123 c0 -10 -12 -58 -25 -108 -14 -49 -30 -107 -36 -127 -8
-31 -14 -38 -34 -38 -14 0 -25 2 -25 4 0 4 72 213 91 264 10 26 29 29 29 5z
m263 -65 c11 -132 10 -145 -13 -151 -19 -5 -20 0 -20 114 0 93 3 119 14 119 9
0 15 -23 19 -82z m-212 67 c6 -5 -46 -263 -54 -271 -3 -3 -14 -4 -24 -2 -20 3
-13 33 56 276 2 4 17 2 22 -3z m104 -102 c-8 -140 -11 -153 -35 -153 -24 0
-24 -7 -4 132 13 95 23 127 42 128 2 0 1 -48 -3 -107z m55 -12 c0 -99 -3 -120
-16 -125 -24 -9 -24 -9 -24 37 0 106 13 207 26 207 11 0 14 -26 14 -119z
m-105 67 c-3 -24 -12 -81 -18 -128 -11 -76 -14 -85 -34 -88 -28 -4 -28 -2 -2
129 25 130 25 129 44 129 13 0 15 -8 10 -42z m318 -168 c-43 -73 -174 -205
-265 -268 -61 -42 -172 -96 -248 -120 -110 -35 -184 -45 -301 -40 -97 5 -117
9 -174 37 -112 55 -171 150 -145 234 23 77 119 86 305 27 146 -45 276 -57 398
-37 54 9 132 30 175 47 73 28 234 120 247 140 3 6 11 10 16 10 6 0 2 -14 -8
-30z m1726 -436 c565 -84 1090 -499 1334 -1058 230 -524 229 -1181 -2 -1680
-87 -188 -251 -394 -383 -481 -46 -30 -58 -43 -58 -64 0 -154 -155 -243 -400
-229 l-88 5 -6 -40 c-19 -116 -80 -179 -180 -185 -49 -3 -69 1 -106 20 -57 30
-96 99 -86 153 13 69 85 125 159 125 43 0 98 -36 110 -73 11 -35 3 -45 -18
-23 -43 43 -126 21 -151 -39 -14 -33 -13 -40 3 -73 52 -106 193 -56 222 78 6
28 9 61 5 74 l-5 22 168 0 c161 -1 170 0 213 24 54 30 87 77 96 135 12 84 -55
165 -137 165 -22 0 -39 3 -39 6 0 4 38 46 84 94 258 268 448 625 511 960 25
130 25 470 1 620 -34 211 -86 374 -177 551 -76 147 -161 260 -287 380 -245
236 -521 356 -897 390 -331 29 -646 -37 -874 -185 -84 -54 -215 -177 -278
-260 -88 -118 -162 -293 -183 -436 -6 -41 -14 -86 -17 -100 -6 -22 -7 -21 -14
15 -13 66 -10 199 6 275 71 337 367 642 755 778 214 75 458 94 719 56z m-2781
-98 c61 -22 97 -52 127 -108 23 -42 27 -62 27 -125 l0 -75 44 5 c27 3 70 21
114 47 39 24 74 40 77 36 11 -10 -107 -118 -169 -154 -137 -81 -274 -103 -359
-59 -105 56 -126 230 -34 287 39 24 102 26 133 4 32 -22 27 -34 -12 -34 -74 0
-126 -83 -92 -149 44 -84 181 -79 228 9 29 54 21 147 -18 202 -37 53 -110 99
-166 105 -66 7 -151 -29 -213 -91 -61 -60 -85 -121 -85 -211 0 -113 80 -229
197 -286 54 -26 205 -37 291 -21 28 5 52 7 52 3 -1 -3 -44 -53 -96 -111 -209
-230 -330 -457 -410 -765 l-34 -130 4 110 c12 296 106 510 330 751 36 40 66
74 66 77 0 2 -23 7 -51 11 -79 11 -193 50 -250 87 -95 61 -143 157 -143 289 0
143 81 253 217 296 57 17 175 17 225 0z m264 -719 c12 -26 19 -50 16 -52 -8
-8 -128 -18 -128 -11 0 14 75 116 83 113 5 -1 18 -24 29 -50z m12 -164 c-11
-79 -14 -80 -82 -19 -68 61 -67 63 31 65 l58 1 -7 -47z m-67 -119 c-6 -6 -199
-45 -203 -42 -9 10 39 48 61 48 13 0 31 3 40 6 14 6 13 10 -10 34 -20 20 -25
34 -20 49 6 20 11 17 71 -35 35 -31 63 -58 61 -60z m29 -166 c-3 -50 -8 -93
-10 -96 -3 -2 -59 29 -125 69 -67 39 -119 74 -116 77 6 7 190 39 229 41 l29 1
-7 -92z m-86 -148 c21 -15 15 -18 -135 -53 -87 -21 -160 -35 -163 -33 -2 3 1
21 8 40 12 37 14 38 114 62 l29 7 -49 25 c-62 31 -60 28 -39 52 18 20 19 19
115 -33 53 -28 107 -59 120 -67z m-811 -225 c101 -390 238 -722 401 -973 33
-51 60 -95 60 -97 0 -2 -16 3 -36 11 -198 83 -388 -18 -402 -215 -6 -93 3
-135 40 -177 60 -68 152 -93 218 -59 37 19 50 43 50 95 0 78 -56 137 -121 128
-22 -4 -29 -1 -29 13 0 21 62 77 95 85 68 17 141 -29 190 -117 25 -46 29 -65
30 -129 0 -65 -5 -85 -32 -140 -33 -68 -87 -130 -138 -162 -41 -25 -138 -24
-213 2 -162 57 -263 193 -325 438 -19 78 -22 113 -22 327 0 258 9 335 66 610
30 146 121 527 125 522 1 -1 21 -74 43 -162z m885 88 c3 -21 6 -66 6 -99 l0
-61 -191 52 c-105 30 -193 55 -195 57 -3 3 326 81 367 87 4 1 9 -16 13 -36z
m-237 -169 c87 -25 160 -48 162 -50 4 -4 -307 -154 -320 -154 -5 0 -9 18 -9
39 l0 39 98 33 c53 19 88 35 77 37 -11 1 -56 6 -100 10 l-80 7 -3 43 c-2 24 1
42 7 42 6 0 81 -21 168 -46z m291 -217 c14 -48 23 -89 20 -92 -6 -7 -438 7
-438 14 1 9 363 170 379 168 9 -1 24 -36 39 -90z m-26 -176 c9 -8 -252 -232
-263 -226 -4 3 -10 19 -14 35 -6 27 -1 35 44 76 28 25 51 50 51 55 0 5 -36 9
-79 9 -76 0 -80 1 -100 29 -12 16 -21 32 -21 36 0 9 372 -4 382 -14z m161
-158 c32 -65 54 -119 50 -120 -19 -5 -426 -33 -430 -30 -5 5 305 267 316 267
4 0 33 -53 64 -117z m17 -208 c0 -9 -212 -245 -220 -245 -3 0 -13 13 -23 29
l-17 29 46 51 46 51 -86 0 c-85 0 -86 0 -101 30 -9 17 -14 31 -13 31 3 2 298
25 341 28 15 0 27 -1 27 -4z m171 -117 c33 -50 56 -94 52 -98 -9 -9 -355 -90
-381 -90 -15 0 242 275 261 279 4 0 34 -40 68 -91z m15 -300 c-29 -62 -64
-135 -78 -162 l-25 -49 -21 31 -22 30 30 78 c16 43 28 80 25 82 -2 2 -43 -2
-90 -10 -82 -14 -87 -14 -111 5 -14 10 -22 22 -19 26 5 4 319 75 357 80 4 1
-17 -50 -46 -111z m310 -85 c-6 -7 -346 -191 -346 -187 0 2 32 72 71 156 39
84 78 168 86 187 l14 33 88 -93 c49 -52 88 -95 87 -96z m10 -100 c-3 -10 -17
-70 -32 -133 -14 -63 -30 -119 -34 -123 -7 -8 -60 11 -60 23 0 3 7 27 16 53 9
26 14 51 12 57 -2 6 -26 -6 -55 -25 -29 -19 -58 -35 -65 -35 -15 0 -65 37 -58
43 14 12 266 157 273 157 5 0 6 -8 3 -17z m175 -43 c43 -34 79 -64 79 -68 0
-6 -196 -151 -235 -174 -8 -5 -2 34 17 110 44 177 48 192 54 192 3 0 41 -27
85 -60z m2274 -187 c29 -25 50 -28 89 -13 20 7 26 6 26 -4 0 -77 -110 -98
-299 -57 -93 21 -117 30 -95 38 18 6 187 104 214 123 l25 19 7 -42 c5 -26 17
-50 33 -64z m-2019 20 c46 -27 83 -51 81 -54 -1 -4 -44 -51 -96 -105 l-94 -99
6 115 c4 63 7 132 7 153 0 20 3 37 6 37 4 0 44 -21 90 -47z m-168 -104 c-4
-61 -9 -113 -12 -116 -2 -2 -14 1 -26 7 -20 11 -22 17 -16 67 l6 55 -28 -21
c-16 -11 -34 -27 -41 -35 -10 -12 -18 -13 -37 -4 -13 6 -24 15 -24 19 0 10
162 138 175 138 7 1 8 -37 3 -110z m446 -20 l86 -31 -86 -101 c-48 -56 -90
-103 -95 -105 -5 -2 -9 27 -9 65 0 70 11 203 16 203 2 0 41 -14 88 -31z m-158
-111 c-4 -62 -9 -114 -10 -116 -2 -1 -11 0 -20 4 -10 4 -16 18 -16 38 0 53
-13 61 -48 31 -27 -22 -34 -24 -53 -14 -22 11 -20 14 57 90 43 43 83 78 88 78
5 1 6 -47 2 -111z m462 23 c46 -11 86 -21 88 -24 3 -3 -30 -53 -72 -111 -43
-58 -79 -104 -80 -103 -2 2 -8 45 -14 97 -6 52 -13 110 -16 128 -6 37 -12 37
94 13z m-150 -123 c6 -67 9 -124 7 -126 -2 -3 -15 -2 -28 2 -19 4 -26 14 -31
46 -3 22 -9 40 -12 40 -3 0 -20 -12 -37 -26 -23 -19 -37 -24 -56 -19 -14 4
-28 8 -29 10 -5 5 159 195 168 195 3 0 11 -55 18 -122z m782 88 c0 -8 -62
-191 -66 -195 -4 -4 -24 40 -60 137 l-24 62 75 0 c41 0 75 -2 75 -4z m-317
-121 c-32 -63 -59 -113 -60 -111 -4 4 -53 204 -53 217 0 5 38 9 85 9 l85 0
-57 -115z m-123 -133 c0 -8 -9 -12 -22 -10 -16 2 -25 13 -32 38 -5 19 -11 37
-14 40 -2 3 -18 -12 -36 -33 -28 -33 -36 -37 -60 -31 -16 4 -25 12 -22 19 2 7
35 54 72 105 l68 93 23 -104 c12 -57 22 -110 23 -117z m280 95 c35 -101 36
-107 11 -107 -13 0 -24 11 -32 35 -7 19 -16 35 -19 35 -4 0 -14 -18 -23 -40
-13 -35 -19 -40 -47 -40 -17 0 -30 4 -28 8 71 176 93 221 100 208 4 -7 21 -52
38 -99z m274 -13 c26 -31 46 -60 46 -65 0 -19 -38 -8 -54 16 -21 31 -32 32
-40 1 -5 -21 -46 -45 -46 -28 0 9 43 132 46 132 2 0 23 -25 48 -56z"/>
<path d="M10623 14940 c-32 -13 -57 -57 -56 -98 1 -49 48 -92 99 -92 50 0 94
45 94 95 0 47 -13 71 -50 90 -32 17 -54 18 -87 5z"/>
<path d="M10455 14535 c-29 -28 -31 -54 -10 -94 45 -87 176 -24 144 69 -20 55
-91 69 -134 25z"/>
<path d="M10450 14180 c-46 -46 -11 -124 55 -124 67 0 96 64 54 118 -26 33
-79 36 -109 6z"/>
<path d="M10612 13808 c-21 -21 -14 -66 13 -84 50 -32 103 22 70 72 -17 26
-62 33 -83 12z"/>
<path d="M10544 10956 c-25 -25 -34 -43 -34 -67 0 -103 121 -153 185 -77 25
30 29 43 25 88 -3 37 -17 58 -50 75 -49 25 -88 19 -126 -19z"/>
<path d="M10309 10911 c-86 -86 38 -210 128 -128 30 27 38 69 19 106 -31 60
-99 70 -147 22z"/>
<path d="M10176 10769 c-30 -24 -34 -63 -10 -97 11 -16 25 -22 54 -22 44 0 70
26 70 71 0 30 -40 69 -70 69 -10 0 -29 -9 -44 -21z"/>
<path d="M10107 10602 c-20 -22 -22 -63 -5 -80 20 -20 76 -15 88 7 15 29 12
56 -8 74 -24 22 -55 21 -75 -1z"/>
<path d="M10092 10448 c-27 -27 -3 -88 34 -88 18 0 54 36 54 53 0 36 -63 60
-88 35z"/>
<path d="M10122 10308 c-22 -22 -15 -67 12 -80 29 -13 51 -6 65 20 23 42 -43
94 -77 60z"/>
<path d="M10182 10178 c-7 -7 -12 -24 -12 -40 0 -50 66 -62 91 -17 23 43 -44
92 -79 57z"/>
<path d="M10270 10074 c-21 -25 -1 -68 33 -72 16 -2 35 2 43 9 17 14 18 51 2
67 -17 17 -63 15 -78 -4z"/>
<path d="M10386 9994 c-21 -21 -20 -47 2 -67 24 -22 45 -21 65 1 22 24 21 45
-1 65 -23 21 -46 22 -66 1z"/>
<path d="M10510 9925 c-26 -32 13 -81 48 -59 34 22 22 74 -18 74 -10 0 -23 -7
-30 -15z"/>
<path d="M10634 9906 c-10 -26 4 -48 28 -44 17 2 23 10 23 28 0 18 -6 26 -23
28 -13 2 -25 -3 -28 -12z"/>
<path d="M10892 9903 c5 -26 38 -29 38 -4 0 15 -6 21 -21 21 -14 0 -19 -5 -17
-17z"/>
<path d="M10722 9893 c5 -26 38 -29 38 -4 0 15 -6 21 -21 21 -14 0 -19 -5 -17
-17z"/>
<path d="M10810 9890 c0 -15 5 -20 18 -18 9 2 17 10 17 18 0 8 -8 16 -17 18
-13 2 -18 -3 -18 -18z"/>
<path d="M11505 14537 c-94 -31 -140 -71 -177 -152 -19 -41 -23 -66 -23 -141
1 -86 4 -97 39 -169 48 -96 121 -172 212 -216 60 -30 77 -34 144 -33 89 1 133
18 195 75 67 62 90 124 90 244 0 92 -3 106 -32 167 -67 143 -185 226 -329 234
-50 2 -94 -1 -119 -9z m215 -88 c141 -71 175 -277 66 -406 -33 -39 -119 -83
-163 -83 -119 0 -235 140 -236 284 0 34 7 77 15 96 50 115 203 168 318 109z"/>
<path d="M11563 14425 c-85 -37 -105 -184 -36 -273 67 -88 197 -78 245 18 26
51 24 145 -5 194 -39 68 -127 95 -204 61z"/>
<path d="M11574 13734 c-37 -18 -57 -52 -56 -94 2 -93 102 -132 168 -66 56 56
42 131 -32 162 -41 17 -42 17 -80 -2z"/>
<path d="M11750 13517 c-51 -26 -52 -105 -1 -132 34 -17 85 -5 101 25 36 67
-33 142 -100 107z"/>
<path d="M11880 13364 c-8 -8 -13 -29 -13 -46 0 -54 63 -78 103 -38 24 24 25
48 4 78 -18 26 -75 30 -94 6z"/>
<path d="M12014 13245 c-19 -29 -12 -58 19 -72 52 -24 99 36 62 77 -25 27 -61
25 -81 -5z"/>
<path d="M12124 13146 c-12 -49 43 -76 70 -33 15 24 -3 51 -37 55 -21 3 -28
-2 -33 -22z"/>
<path d="M12222 13091 c-8 -4 -12 -19 -10 -32 2 -18 9 -24 28 -24 19 0 26 6
28 24 3 20 -11 41 -28 41 -3 0 -11 -4 -18 -9z"/>
<path d="M12297 13034 c-13 -13 -7 -52 8 -58 27 -10 46 5 43 33 -3 26 -35 41
-51 25z"/>
<path d="M12374 12965 c-9 -23 3 -45 24 -45 25 0 44 23 36 44 -8 20 -53 21
-60 1z"/>
<path d="M12466 12934 c-9 -8 -16 -18 -16 -22 1 -38 63 -42 68 -5 4 30 -31 49
-52 27z"/>
<path d="M8197 14203 c-3 -5 -2 -15 3 -22 10 -17 43 -6 38 12 -6 15 -34 22
-41 10z"/>
<path d="M8113 14154 c-8 -21 13 -42 28 -27 13 13 5 43 -11 43 -6 0 -13 -7
-17 -16z"/>
<path d="M8035 14060 c-8 -13 3 -30 20 -30 14 0 27 24 18 34 -10 9 -31 7 -38
-4z"/>
<path d="M7981 13947 c-16 -16 7 -41 25 -26 8 6 14 15 14 19 0 14 -27 19 -39
7z"/>
<path d="M7946 13825 c-3 -9 1 -18 10 -22 19 -7 39 11 30 26 -10 16 -33 13
-40 -4z"/>
<path d="M7925 13716 c-20 -15 -17 -44 7 -59 12 -8 21 -7 32 2 36 30 -1 85
-39 57z"/>
<path d="M7922 13551 c-22 -14 -10 -56 17 -59 37 -6 52 26 25 52 -18 18 -24
19 -42 7z"/>
<path d="M7947 13379 c-39 -22 -4 -79 35 -58 10 5 18 18 18 29 0 25 -30 41
-53 29z"/>
<path d="M7957 13222 c-22 -24 -21 -45 1 -65 23 -21 46 -22 66 -1 30 30 9 84
-33 84 -10 0 -25 -8 -34 -18z"/>
<path d="M8006 13048 c-9 -12 -16 -29 -16 -38 0 -9 7 -26 16 -38 23 -34 83
-27 104 11 13 24 13 30 0 55 -21 37 -81 44 -104 10z"/>
<path d="M8106 12879 c-53 -42 -24 -119 45 -119 31 0 69 40 69 72 0 24 -44 68
-68 68 -11 0 -31 -9 -46 -21z"/>
<path d="M8220 12685 c-53 -56 -13 -145 65 -145 39 0 85 46 85 85 0 13 -12 37
-26 54 -34 41 -89 43 -124 6z"/>
<path d="M8372 12500 c-18 -11 -37 -32 -42 -46 -41 -107 56 -206 155 -158 43
20 65 59 65 111 0 91 -98 142 -178 93z"/>
<path d="M8814 11163 c-67 -47 -5 -155 67 -119 60 30 45 119 -21 124 -19 1
-40 -1 -46 -5z"/>
<path d="M8882 10994 c-70 -48 -33 -164 51 -164 16 0 37 5 49 11 26 14 48 67
41 102 -11 57 -91 86 -141 51z"/>
<path d="M8965 10786 c-54 -24 -95 -85 -95 -138 0 -43 41 -108 81 -128 130
-67 262 58 205 194 -27 66 -125 103 -191 72z"/>
<path d="M9055 10459 c-35 -20 -55 -53 -55 -92 0 -77 89 -124 155 -81 29 19
48 72 40 107 -14 55 -94 92 -140 66z"/>
<path d="M9060 10210 c-41 -41 -8 -120 49 -120 28 0 71 42 71 70 0 29 -44 70
-75 70 -14 0 -34 -9 -45 -20z"/>
<path d="M8550 9617 c-19 -6 -55 -32 -81 -57 -145 -140 -46 -375 157 -374 232
1 302 311 95 417 -58 29 -110 33 -171 14z m139 -73 c3 -3 -3 -12 -12 -21 -16
-16 -18 -16 -31 2 -8 11 -12 23 -9 28 4 7 41 0 52 -9z m-61 -37 c4 -20 -25
-34 -40 -19 -15 15 -1 44 19 40 10 -2 19 -11 21 -21z m91 -16 c10 -18 -2 -31
-29 -31 -14 0 -21 33 -8 42 19 12 26 10 37 -11z m-153 -8 c13 -19 2 -43 -21
-43 -18 0 -27 30 -14 46 15 18 19 18 35 -3z m104 -44 c0 -16 -34 -19 -49 -4
-14 13 -13 16 4 29 18 13 21 13 33 -1 6 -9 12 -20 12 -24z m-158 -21 c-9 -9
-12 -7 -12 12 0 19 3 21 12 12 9 -9 9 -15 0 -24z m243 7 c0 -11 -7 -21 -16
-23 -18 -3 -33 23 -23 39 10 17 39 5 39 -16z m-158 -32 c-16 -16 -18 -16 -31
2 -13 18 -13 21 2 33 13 10 19 9 31 -3 14 -13 13 -17 -2 -32z m103 7 c8 -15 6
-21 -9 -30 -26 -13 -28 -13 -35 6 -6 17 9 44 25 44 5 0 13 -9 19 -20z m-153
-16 c8 -21 -13 -42 -28 -27 -13 13 -5 43 11 43 6 0 13 -7 17 -16z m91 -16 c17
-17 15 -26 -8 -38 -16 -8 -21 -6 -31 11 -9 17 -8 23 2 30 18 12 23 11 37 -3z
m92 -22 c0 -24 -26 -38 -39 -22 -10 11 -8 17 6 25 25 14 33 14 33 -3z m-140
-38 c0 -5 -9 -4 -20 2 -21 11 -25 22 -13 34 8 7 33 -21 33 -36z m85 3 c6 -11
-33 -26 -43 -16 -4 3 0 10 8 15 19 12 27 12 35 1z"/>
<path d="M10039 9422 c-26 -22 -31 -75 -8 -97 43 -42 119 -13 119 46 0 59 -64
88 -111 51z"/>
<path d="M10212 9407 c-31 -33 -29 -80 4 -106 43 -34 86 -24 113 26 37 71 -62
138 -117 80z"/>
<path d="M9901 9386 c-21 -26 -10 -69 22 -80 23 -8 31 -6 49 12 18 18 20 26
12 49 -7 21 -17 29 -40 31 -18 2 -36 -3 -43 -12z"/>
<path d="M10407 9369 c-9 -5 -24 -24 -33 -40 -39 -77 43 -158 119 -117 34 17
46 39 47 80 0 63 -78 109 -133 77z"/>
<path d="M9780 9341 c-7 -15 -5 -24 8 -41 32 -40 85 -4 62 41 -14 25 -56 25
-70 0z"/>
<path d="M9700 9316 c-27 -33 18 -72 48 -42 13 13 14 20 6 34 -15 23 -38 26
-54 8z"/>
<path d="M10601 9256 c-87 -48 -50 -186 50 -186 51 0 98 47 99 98 0 44 -14 68
-50 87 -35 18 -67 19 -99 1z"/>
<path d="M7705 7035 c-83 -29 -132 -127 -105 -209 15 -46 79 -103 125 -112 43
-8 102 8 139 37 82 65 75 207 -13 264 -48 30 -97 37 -146 20z"/>
<path d="M10170 9110 c-24 -24 -24 -29 -4 -58 17 -24 53 -29 72 -10 19 19 15
66 -7 78 -28 14 -38 13 -61 -10z"/>
<path d="M10000 9083 c-37 -47 -8 -106 51 -106 60 0 91 71 49 113 -29 29 -74
26 -100 -7z"/>
<path d="M10293 9083 c-22 -8 -16 -61 7 -68 39 -12 66 35 38 63 -13 13 -24 14
-45 5z"/>
<path d="M10372 9018 c-7 -7 -12 -18 -12 -25 0 -15 30 -32 48 -26 17 7 15 50
-4 57 -20 8 -18 8 -32 -6z"/>
<path d="M9849 8990 c-29 -17 -43 -66 -29 -100 15 -37 37 -50 84 -50 68 0 101
86 51 135 -25 26 -75 33 -106 15z"/>
<path d="M10423 8954 c-3 -8 -1 -20 5 -26 15 -15 43 8 35 28 -7 19 -32 18 -40
-2z"/>
<path d="M9749 8771 c-23 -23 -29 -38 -29 -71 0 -53 42 -100 90 -100 99 0 144
98 76 166 -45 45 -95 47 -137 5z"/>
<path d="M10801 8666 c-93 -34 -155 -123 -155 -226 0 -101 58 -188 150 -226
75 -31 184 -12 245 43 60 54 83 105 83 183 0 100 -57 187 -146 224 -44 19
-129 20 -177 2z m103 -65 c7 -11 -22 -23 -36 -15 -6 4 -5 10 3 15 18 11 26 11
33 0z m-56 -33 c4 -19 -27 -33 -41 -19 -7 7 -6 16 3 26 15 18 34 15 38 -7z
m132 7 c10 -12 10 -15 -3 -15 -8 0 -20 7 -27 15 -10 12 -10 15 3 15 8 0 20 -7
27 -15z m-45 -30 c0 -11 -7 -21 -16 -23 -18 -3 -33 23 -23 39 10 17 39 5 39
-16z m87 -37 c-10 -10 -16 -8 -30 5 -15 16 -15 19 -2 27 21 13 49 -15 32 -32z
m-234 20 c-2 -6 -10 -14 -16 -16 -7 -2 -10 2 -6 12 7 18 28 22 22 4z m92 -8
c8 -15 6 -21 -9 -29 -26 -14 -50 12 -31 34 17 20 27 19 40 -5z m90 -44 c-7 -9
-16 -16 -20 -16 -15 0 -20 32 -9 47 11 12 14 12 27 -1 13 -12 13 -18 2 -30z
m-149 8 c11 -14 10 -18 -5 -30 -17 -12 -21 -11 -32 4 -9 12 -9 21 -2 29 14 17
23 16 39 -3z m219 -16 c0 -16 -3 -19 -11 -11 -6 6 -8 16 -5 22 11 17 16 13 16
-11z m-121 -6 c12 -23 -19 -48 -38 -29 -15 15 -14 34 2 40 21 9 26 8 36 -11z
m-149 -28 c0 -8 -4 -14 -10 -14 -5 0 -10 9 -10 21 0 11 5 17 10 14 6 -3 10
-13 10 -21z m240 6 c8 -15 6 -21 -9 -30 -16 -8 -22 -7 -30 8 -7 13 -7 22 1 30
17 17 26 15 38 -8z m-155 -26 c0 -10 -7 -20 -16 -22 -21 -4 -34 28 -17 40 19
11 33 4 33 -18z m99 -10 c13 -33 -21 -47 -45 -18 -10 13 -10 17 2 25 21 13 36
11 43 -7z m-151 -36 c-3 -6 -12 -3 -20 5 -9 9 -12 20 -8 28 6 9 11 8 21 -6 7
-10 11 -22 7 -27z m97 -14 c0 -8 -2 -14 -4 -14 -2 0 -11 -3 -19 -6 -19 -7 -31
24 -16 42 13 16 39 1 39 -22z m120 32 c0 -3 -4 -8 -10 -11 -5 -3 -10 -1 -10 4
0 6 5 11 10 11 6 0 10 -2 10 -4z m-41 -42 c-13 -16 -39 -19 -39 -4 0 12 32 30
43 23 4 -3 3 -11 -4 -19z m-149 -4 c0 -5 -2 -10 -4 -10 -3 0 -8 5 -11 10 -3 6
-1 10 4 10 6 0 11 -4 11 -10z"/>
<path d="M10520 8417 c-35 -17 -48 -61 -30 -94 36 -63 122 -44 128 29 5 54
-49 90 -98 65z"/>
<path d="M11002 8177 c-46 -49 -12 -127 55 -127 46 0 77 30 77 75 0 69 -85
102 -132 52z"/>
<path d="M9935 7771 c-58 -24 -81 -103 -46 -158 44 -71 150 -63 186 14 42 88
-49 181 -140 144z"/>
<path d="M9447 7714 c-12 -13 -8 -52 7 -57 8 -3 22 1 33 8 14 11 16 18 7 32
-12 19 -36 28 -47 17z"/>
<path d="M9707 7702 c-22 -25 -21 -75 1 -95 25 -22 75 -21 95 1 22 25 21 75
-1 95 -25 22 -75 21 -95 -1z"/>
<path d="M9367 7704 c-9 -10 2 -24 19 -24 8 0 14 7 14 15 0 15 -21 21 -33 9z"/>
<path d="M9562 7694 c-38 -26 -22 -74 24 -74 45 0 58 50 19 76 -18 12 -24 11
-43 -2z"/>
<path d="M9450 8415 c0 -8 7 -15 15 -15 8 0 15 7 15 15 0 8 -7 15 -15 15 -8 0
-15 -7 -15 -15z"/>
<path d="M9514 8419 c-8 -14 11 -33 25 -25 11 7 4 36 -9 36 -5 0 -12 -5 -16
-11z"/>
<path d="M9580 8390 c0 -13 7 -20 20 -20 13 0 20 7 20 20 0 13 -7 20 -20 20
-13 0 -20 -7 -20 -20z"/>
<path d="M9644 8366 c-10 -26 4 -48 28 -44 17 2 23 10 23 28 0 18 -6 26 -23
28 -13 2 -25 -3 -28 -12z"/>
<path d="M9670 8285 c-17 -21 -5 -45 24 -45 27 0 42 26 25 46 -15 18 -33 18
-49 -1z"/>
<path d="M9624 8196 c-10 -26 4 -48 28 -44 17 2 23 10 23 28 0 18 -6 26 -23
28 -13 2 -25 -3 -28 -12z"/>
<path d="M9544 8136 c-10 -26 4 -48 28 -44 17 2 23 10 23 28 0 18 -6 26 -23
28 -13 2 -25 -3 -28 -12z"/>
<path d="M9454 8096 c-10 -26 4 -48 28 -44 17 2 23 10 23 28 0 18 -6 26 -23
28 -13 2 -25 -3 -28 -12z"/>
<path d="M9362 8088 c-27 -27 5 -73 38 -53 16 10 12 52 -6 59 -20 8 -18 8 -32
-6z"/>
<path d="M9260 8075 c-14 -17 -7 -43 15 -51 15 -6 45 11 45 27 0 4 -7 15 -16
23 -19 20 -28 20 -44 1z"/>
<path d="M9073 8073 c-15 -6 -17 -49 -3 -58 33 -20 65 26 38 53 -13 13 -16 13
-35 5z"/>
<path d="M9155 8070 c-11 -17 5 -50 24 -50 24 0 43 23 35 44 -7 18 -49 22 -59
6z"/>
<path d="M9280 6610 c0 -11 7 -20 15 -20 8 0 15 9 15 20 0 11 -7 20 -15 20 -8
0 -15 -9 -15 -20z"/>
<path d="M8387 6600 c-37 -29 -37 -80 -1 -109 35 -27 59 -26 89 4 63 63 -18
160 -88 105z"/>
<path d="M9207 6584 c-16 -16 -7 -44 14 -44 15 0 20 5 17 22 -3 22 -19 33 -31
22z"/>
<path d="M8545 6524 c-35 -38 -34 -87 4 -125 20 -20 39 -29 61 -29 45 0 90 47
90 93 0 78 -102 118 -155 61z"/>
<path d="M9091 6531 c-14 -25 -5 -48 20 -56 27 -9 51 13 47 44 -4 34 -51 43
-67 12z"/>
<path d="M8960 6517 c-37 -19 -41 -80 -6 -102 33 -22 73 -13 88 20 15 33 3 69
-27 83 -31 14 -25 14 -55 -1z"/>
<path d="M8766 6489 c-31 -24 -36 -77 -8 -102 45 -41 122 -10 122 48 0 30 -41
75 -68 75 -11 0 -31 -9 -46 -21z"/>
<path d="M10924 6265 c-9 -23 3 -45 26 -45 25 0 37 25 20 45 -16 19 -39 19
-46 0z"/>
<path d="M11064 6265 c-9 -23 3 -45 26 -45 25 0 37 25 20 45 -16 19 -39 19
-46 0z"/>
<path d="M10774 6255 c-4 -9 0 -23 9 -32 21 -21 49 -9 45 19 -4 28 -45 38 -54
13z"/>
<path d="M10641 6246 c-16 -20 -3 -46 24 -46 13 0 26 7 29 16 7 19 -10 44 -29
44 -7 0 -18 -6 -24 -14z"/>
<path d="M11186 6244 c-7 -19 10 -44 30 -44 16 0 33 30 27 48 -7 18 -50 15
-57 -4z"/>
<path d="M11331 6226 c-25 -30 16 -67 44 -40 11 12 12 20 5 35 -12 22 -33 25
-49 5z"/>
<path d="M10503 6214 c-8 -20 21 -49 41 -41 9 4 16 18 16 32 0 20 -5 25 -25
25 -14 0 -28 -7 -32 -16z"/>
<path d="M11450 6185 c-11 -13 -11 -19 3 -32 21 -21 49 -9 45 19 -4 28 -30 35
-48 13z"/>
<path d="M10387 6183 c-4 -3 -7 -17 -7 -30 0 -18 5 -23 25 -23 14 0 28 7 31
15 11 27 -30 58 -49 38z"/>
<path d="M11575 6140 c-12 -20 6 -51 28 -48 31 4 31 52 0 56 -11 2 -24 -2 -28
-8z"/>
<path d="M10265 6110 c-8 -26 6 -43 31 -38 13 2 19 12 19 28 0 34 -40 41 -50
10z"/>
<path d="M11712 6081 c-21 -13 -10 -46 16 -49 27 -4 40 22 22 43 -14 17 -20
18 -38 6z"/>
<path d="M10164 6056 c-10 -26 4 -48 28 -44 17 2 23 10 23 28 0 18 -6 26 -23
28 -13 2 -25 -3 -28 -12z"/>
<path d="M11810 6005 c-10 -12 -10 -18 0 -30 7 -8 18 -15 25 -15 7 0 18 7 25
15 10 12 10 18 0 30 -7 8 -18 15 -25 15 -7 0 -18 -7 -25 -15z"/>
<path d="M10094 5989 c-3 -6 0 -17 7 -25 18 -17 44 -2 36 20 -7 18 -33 21 -43
5z"/>
<path d="M10033 5934 c-8 -21 13 -42 28 -27 13 13 5 43 -11 43 -6 0 -13 -7
-17 -16z"/>
<path d="M11913 5924 c-8 -21 19 -46 40 -38 9 3 17 17 17 30 0 19 -5 24 -25
24 -14 0 -28 -7 -32 -16z"/>
<path d="M9963 5864 c-3 -8 -1 -20 6 -27 14 -14 47 15 37 32 -10 16 -36 13
-43 -5z"/>
<path d="M12001 5856 c-16 -20 -3 -46 24 -46 13 0 26 7 29 16 7 19 -10 44 -29
44 -7 0 -18 -6 -24 -14z"/>
<path d="M9912 5793 c2 -10 10 -18 18 -18 8 0 16 8 18 18 2 12 -3 17 -18 17
-15 0 -20 -5 -18 -17z"/>
<path d="M12084 5756 c-10 -26 4 -48 28 -44 17 2 23 10 23 28 0 18 -6 26 -23
28 -13 2 -25 -3 -28 -12z"/>
<path d="M9875 5729 c-10 -15 3 -25 16 -12 7 7 7 13 1 17 -6 3 -14 1 -17 -5z"/>
<path d="M9830 5670 c0 -5 7 -10 15 -10 8 0 15 5 15 10 0 6 -7 10 -15 10 -8 0
-15 -4 -15 -10z"/>
<path d="M12182 5668 c-16 -16 -15 -33 4 -48 22 -19 54 12 38 37 -14 22 -27
26 -42 11z"/>
<path d="M9800 5600 c0 -5 5 -10 10 -10 6 0 10 5 10 10 0 6 -4 10 -10 10 -5 0
-10 -4 -10 -10z"/>
<path d="M12263 5563 c-7 -2 -13 -16 -13 -29 0 -19 5 -24 25 -24 30 0 43 24
25 45 -13 16 -17 17 -37 8z"/>
<path d="M9766 5542 c-3 -6 -1 -14 5 -17 15 -10 25 3 12 16 -7 7 -13 7 -17 1z"/>
<path d="M9740 5460 c0 -5 7 -10 15 -10 8 0 15 5 15 10 0 6 -7 10 -15 10 -8 0
-15 -4 -15 -10z"/>
<path d="M12310 5445 c-16 -19 -4 -52 22 -61 30 -9 62 29 48 57 -13 22 -52 25
-70 4z"/>
<path d="M12382 5341 c-8 -4 -12 -21 -10 -37 2 -25 7 -29 32 -29 36 0 56 27
40 53 -13 19 -43 26 -62 13z"/>
<path d="M12433 5229 c-42 -15 -37 -80 7 -94 23 -7 55 8 64 30 8 22 -10 62
-31 67 -10 3 -28 1 -40 -3z"/>
<path d="M12458 5054 c-21 -45 21 -87 66 -66 28 13 36 58 14 80 -22 22 -67 14
-80 -14z"/>
<path d="M12512 4914 c-27 -18 -29 -55 -4 -77 24 -22 45 -21 65 1 23 26 21 58
-5 76 -12 9 -25 16 -28 16 -3 0 -16 -7 -28 -16z"/>
<path d="M12543 4770 c-68 -27 -48 -130 26 -130 32 0 71 39 71 70 0 42 -56 76
-97 60z"/>
<path d="M12550 4560 c-24 -24 -26 -57 -4 -88 11 -16 25 -22 54 -22 29 0 43 6
54 22 34 48 4 108 -54 108 -17 0 -39 -9 -50 -20z"/>
<path d="M12539 4352 c-47 -39 -16 -122 45 -122 13 0 32 10 44 23 61 65 -20
154 -89 99z"/>
<path d="M12492 4130 c-29 -27 -37 -64 -22 -101 15 -36 37 -49 83 -49 27 0 41
7 61 31 14 17 26 41 26 54 0 13 -12 37 -26 54 -32 38 -87 43 -122 11z"/>
<path d="M12428 3884 c-54 -29 -66 -102 -24 -151 20 -23 32 -28 71 -28 39 0
51 5 71 28 26 30 32 83 14 118 -12 22 -61 49 -87 49 -10 -1 -30 -7 -45 -16z"/>
<path d="M12335 3653 c-65 -17 -106 -86 -85 -147 32 -99 161 -115 214 -26 34
58 5 139 -59 166 -36 15 -38 15 -70 7z"/>
<path d="M12115 3390 c-57 -23 -90 -108 -63 -160 18 -32 75 -70 107 -70 40 0
90 36 108 78 13 32 14 42 2 77 -23 65 -94 100 -154 75z"/>
<path d="M9954 16919 c-10 -17 13 -36 27 -22 12 12 4 33 -11 33 -5 0 -12 -5
-16 -11z"/>
<path d="M9850 16870 c0 -11 7 -20 15 -20 8 0 15 9 15 20 0 11 -7 20 -15 20
-8 0 -15 -9 -15 -20z"/>
<path d="M9760 16815 c-15 -18 -5 -35 20 -35 10 0 22 5 25 10 7 11 -12 40 -25
40 -4 0 -13 -7 -20 -15z"/>
<path d="M9682 16751 c-8 -4 -12 -19 -10 -32 2 -18 9 -24 28 -24 28 0 39 27
20 50 -14 17 -20 18 -38 6z"/>
<path d="M9626 16624 c-22 -21 -20 -47 4 -69 29 -26 70 -7 70 33 0 49 -42 69
-74 36z"/>
<path d="M9619 16469 c-18 -34 3 -69 41 -69 22 0 33 6 41 24 16 35 -3 66 -41
66 -20 0 -33 -7 -41 -21z"/>
<path d="M9694 16320 c-30 -12 -37 -39 -19 -66 18 -28 47 -31 70 -8 34 34 -6
91 -51 74z"/>
<path d="M9814 16188 c-63 -30 -41 -128 28 -128 64 0 92 80 42 119 -30 23 -39
24 -70 9z"/>
<path d="M10303 16153 c-13 -3 -36 -18 -53 -34 -25 -25 -30 -39 -30 -78 0 -53
18 -84 62 -107 41 -21 93 -12 129 22 84 81 8 218 -108 197z"/>
<path d="M10025 16099 c-33 -19 -45 -41 -45 -80 0 -29 7 -43 31 -63 17 -14 39
-26 50 -26 28 0 75 26 83 45 12 31 6 83 -11 104 -21 25 -80 36 -108 20z"/>
<path d="M11613 16040 c-102 -46 -122 -179 -38 -260 31 -30 42 -34 98 -38 110
-6 171 54 165 165 -3 53 -9 68 -33 94 -57 60 -119 73 -192 39z m111 -91 c32
-25 35 -70 5 -100 -28 -28 -76 -22 -102 13 -18 24 -19 30 -7 58 12 29 37 48
66 49 6 1 23 -8 38 -20z"/>
<path d="M9234 15601 c-123 -75 -103 -251 33 -291 143 -43 261 120 178 246
-40 62 -146 85 -211 45z m131 -95 c23 -34 15 -75 -17 -99 -24 -18 -30 -19 -58
-7 -27 11 -50 43 -50 69 0 5 9 20 21 35 28 35 82 36 104 2z"/>
<path d="M8469 2987 c-124 -82 -67 -277 80 -277 86 0 151 64 151 150 0 119
-134 192 -231 127z"/>
<path d="M8761 2765 c-89 -75 -40 -215 75 -215 36 0 51 6 79 33 45 40 55 89
30 141 -33 68 -126 89 -184 41z"/>
<path d="M9075 2623 c-88 -23 -109 -127 -37 -183 85 -68 208 50 146 139 -14
19 -75 54 -86 50 -2 -1 -12 -4 -23 -6z"/>
<path d="M9305 2455 c-67 -66 20 -171 104 -125 31 16 46 65 31 100 -23 56 -92
69 -135 25z"/>
<path d="M11700 2436 c-20 -25 -8 -61 22 -64 36 -4 53 26 32 56 -18 25 -37 28
-54 8z"/>
<path d="M9546 2358 c-43 -40 -36 -107 15 -133 82 -43 160 65 94 130 -31 32
-76 32 -109 3z"/>
<path d="M11516 2344 c-9 -23 -8 -31 9 -47 31 -32 83 14 55 48 -16 20 -56 19
-64 -1z"/>
<path d="M9834 2310 c-55 -22 -70 -95 -29 -135 34 -35 78 -33 117 5 25 26 29
36 24 63 -11 55 -64 87 -112 67z"/>
<path d="M11322 2298 c-18 -18 -14 -46 7 -58 25 -13 48 -4 56 21 12 38 -35 65
-63 37z"/>
<path d="M10095 2240 c-32 -12 -47 -36 -48 -76 -2 -73 87 -111 138 -59 42 41
31 105 -22 133 -25 14 -40 14 -68 2z"/>
<path d="M11107 2243 c-12 -12 -7 -50 8 -63 17 -14 51 -5 59 16 13 35 -41 73
-67 47z"/>
<path d="M10636 2195 c-22 -22 -29 -52 -16 -74 33 -63 120 -42 120 28 0 48
-70 79 -104 46z"/>
<path d="M10890 2191 c-8 -17 -7 -24 10 -41 28 -28 63 -11 58 28 -4 35 -51 44
-68 13z"/>
<path d="M10346 2178 c-32 -45 -6 -98 48 -98 39 0 66 26 66 62 0 55 -83 81
-114 36z"/>
</g>
</svg>
